<svg xmlns="http://www.w3.org/2000/svg" width="303" height="166"><path fill="#b2d5e5" stroke="#b2d5e5" d="M108.5 11q5.4-1.9 4.5 1.5l-1.5-.5q-4 .7-3-1ZM116.5 12l1.5.5-2.5 1.5zM134.5 26l3.5 1 .5 2q1.3-2.2 2.5.5-2.2 1.3.5 2.5l3.5 2.5q-2.2 1.3.5 2.5l3.5 2.5q-2.2 1.3.5 2.5l2.5 1.5q-2.2 1.2.5 2.5l3.5 2.5q-2.2 1.2.5 2.5l2.5 1.5-.5 1.5h-10l-3.5 5.5 1 2.5-2 .5.5 1.5-2 1-1.5-.5q.8 2.6-2.5 1.5l-4 2-6.5-6.5 1-1-3.5-3.5-3-2-.5 2-2 .5 1 2.5-2 .5 1 2-3 5 1 2.5-2 .5 1 2.5-2 .5 1 2-4 8 1 2-2 6.5-15 1 2-3.5-1-2.5 2-.5-1-2.5 2-.5-1-2 3-5v-4q-.7-2.2 1.5-1.5l-.5-1.5q-.7-2.2 1.5-1.5l-.5-1.5 2-3-.5-1.5q2.3.8 1.5-1.5v-4l2-3-1.5.5-10.5-.5 2.5-2.5h2l1.5-.5-.5-1.5h2l1.5-.5q-2.2-1.2.5-2.5l1.5.5 1.5-2.5q1.7 2.8 3.5-1.5l-1-3h1l.5 1.5 4-3 2 1-.5-1.5q-.7-2.2 1.5-1.5l2 1 1-3h2l1.5-.5q-2.2-1.2.5-2.5l2 1 1-3h2l1.5-.5q-2.2-1.3.5-2.5ZM129 39q-3 1-1 3 1 2-2 1v5q1 2-2 1l1 2 5-1 2-6v6h3q-1-3 2-2l-2-2 2-1 1-3q3 1 1-3l-5 1zM115.5 31l5.5.5-5.5.5zM174.5 38l1 2zM177.5 40l1 2z"/><path fill="#b2d5e5" stroke="#b2d5e5" d="M131 41q4.1-1.3 3 2-4.1 1.3-3-2ZM189.5 41l1 2zM181.5 43l1 2zM194.5 45l2 3zM186.5 47l4 5zM201.5 52l2 3zM183.5 56l-1 2zM164.5 58q2.6-.8 1.5 2.5h-1zM123.5 59l1 2zM147.5 65q2.3-.7 1.5 1.5zM129.5 66l2 3zM210.5 69l.5 5.5h-1zM188.5 85l-1 2zM204.5 87l-5 6zM154.5 95l-1 2-1.5-.5zM146.5 97l2.5.5-2.5.5zM127.5 99l4.5.5-4.5.5zM150.5 99l2.5.5-2.5.5zM122.5 100l.5 2 5 .5-6 .5zM144.5 100l2.5.5-2.5.5zM135.5 101l3.5.5-3.5.5zM145.5 112l2.5.5-2.5.5zM136.5 113l4.5.5-4.5.5zM123.5 114l6.5.5-6.5.5zM88.5 127l4.5.5-4.5.5zM124.5 127l5.5.5-5.5.5zM169.5 127l4.5.5-4.5.5zM272.5 127l5.5.5-5.5.5zM44.5 128l.5 22.5q-1.2 2.5-5 1.5v-12.5l-1-1 1.5-2.5.5 15 3-.5zM74.5 128l.5 8.5q-1.5 3-7.5 1.5v-1H74z"/><path fill="#b2d5e5" stroke="#b2d5e5" d="m78.5 128 .5 24h-5v-10h-6.5v-1q6-1.5 7.5 1.5v8.5h3zM101.5 128l.5 15.5h-1zM105.5 128l.5 14.5h-1zM134.5 128l.5 23 3-.5v-22h1v23l-5 .5zM154.5 128l.5 14-2-.5 1-1zM158.5 128l.5 24-5-.5 4-.5zM187.5 128l.5 23h3v-8.5h1v9.5h-5zM198.5 128l.5 2.5h-1zM200.5 128l.5 23 4 .5-3.5.5-1.5-1.5zM258.5 128l.5 15.5h-1zM262.5 128l.5 22.5q-.7 2.3-4.5 1.5v-1l3.5-.5zM279.5 128l.5 5-2-.5zM17.5 129l2 3zM84.5 129l-1 2zM204.5 129l.5 9.5h-1zM208.5 129l.5 5.5h-1zM125.5 131l3.5.5-3.5.5zM170.5 131l2.5.5-2.5.5zM14.5 132l2 3zM87.5 132l-1 2zM119.5 132l.5 3.5h-1zM191.5 132l.5 5.5h-1zM27.5 136l1.5 2.5-1 1V152l-4-.5 3-.5zM21.5 137l.5 4.5h-1zM286.5 137q5.3-1.2 6.5 1.5l-1.5 3.5-5.5-.5 6-.5q1.8-5.2-5.5-3zM99.5 138l.5 2.5h-1zM169.5 138l.5 4 2 .5-1.5.5q-2.7-1.2-1-5ZM177.5 139l.5 10.5h-1zM233.5 139l.5 2 2 .5-3 .5zM33.5 142l1 2zM173.5 143l.5 3.5-2.5 1.5v-1h1.5zM15.5 145l-1 2zM166.5 145l1 2zM270.5 145l1 2zM127.5 146l-1 2zM9.5 147l2.5.5-2.5.5zM88.5 147l3.5.5-3.5.5zM108.5 147l2.5.5-2.5.5zM273.5 147l3.5.5-3.5.5zM286.5 147q6-1.5 7.5 1.5l-1.5 3.5-10.5-.5 11-.5v-3h-6.5zM163.5 148l2 3zM103.5 149l1 2zM226.5 150l4.5 1.5-5 .5zM5.5 151l7.5.5-7.5.5zM33.5 151l2.5.5-2.5.5zM48.5 151l3.5.5-3.5.5zM63.5 151l3.5.5-3.5.5zM142.5 151l3.5.5-3.5.5zM208.5 151l3.5.5-3.5.5zM221.5 151l3.5.5-3.5.5zM240.5 151l3.5.5-3.5.5zM246.5 151l3.5.5-3.5.5z"/><path fill="#fff" stroke="#fff" d="M0 0h303v166H0zm109 11v1l10 2 30 11 22 11 13 9q10 7 14 20 1 11-4 16l-8 7-15 7-27 6-21 1 9-29v-4l-8-10-18 56 35-1 22-4 23-8 14-9q8-7 11-18l-1-9-6-11q-35-35-95-44Zm28 14-17 11 1-2v-3h-6l-3 12-15 11 11 1-19 59 1 1h14l4-16 15-44 12 13 10-4 2-8 2-2h10l-21-27q1-3-1-2Zm46 26-10 4-4 7 1 1 13-5 2-4q1-4-2-3Zm-18 7-13 5-10 34v1l12-1 1-1 11-35q1-4-1-3Zm17 3-15 6-8 28 13-3 2-3 8-26zm-34 4-11 4-3 3-8 28 13-1 10-32q1-3-1-2Zm-59 62-4 2-4 6q-1 8 1 13l6 4 7-1 3-3 2-7-2-9q-2-6-9-5Zm36 0-2 1-4 5 1 5 8 7-2 3-6-3-1 6 3 1 8-1 2-3v-5l-2-4-4-2q-3-1-2-5l7 1v-4q-1-3-6-2Zm45 0-3 1-6 8q-1 9 2 13l5 3q6 1 9-2h1v-10l-1-2h-8q-1 4 2 5l2-1v5l-2 1-2-1-4-4q-1-8 4-11 6-1 8 2v-6zm103 0-2 1-6 7v11l1 2 6 4q5 2 7-1h1v-5q-2 2-7 1l-4-4q-1-8 4-11 4-1 6 1h1v-5q-2-2-7-1ZM5 128v24l11-1q4-3 6-9l-2-10-4-4zm19 0v24h4l1-13 3 12 4 1 4-13v13q4 1 5-1v-23h-6l-4 15-2-1-3-12q-1-3-6-2Zm24 0v24h4v-23zm15 0v24h4v-10h7v10h5v-24h-5v9h-7v-9zm38 0v16l2 6 4 2 7-1 3-5v-17l-4-1v16l-1 3q-5 1-6-1v-17zm33 0v24h5v-23zm8 0v24h4l1-16 7 15v1h5v-23l-5-1v13l-7-11v-2zm45 0v24h5v-10h6v-4h-6v-6q5 1 7-1v-3zm13 0v23q1 2 5 1v-23zm8 0v24h4l1-16 6 14q1 3 6 2v-23l-4-1v15l-7-13q-1-3-6-2Zm25 0-7 23v1h5l1-4 1-2h6l1 5v1h4l-1-7-5-14v-3zm13 0v24h4l1-15 7 15q4 1 5-1v-22l-5-1v14l-7-12v-2zm36 0v24h11l1-3q-2-4-8-2-3-7 6-5l1-3q-2-3-7-2v-5h7v-4z"/><path fill="#fff" stroke="#fff" d="m128 40 4 .5-1 3.5-4-.5zM134 40h4v1.5l-1 2.5-4-.5zM126 46h4v1.5l-1 2.5-4-.5zM132 46h4v1.5l-1 2.5-4-.5zM9 132q6.4-1.2 8 3.5 1.5 9-3.5 11.5-4.5.5-4.5-.5zM88.5 132q4.5-1 5.5 1.5 2.3 3.2 1 10l-2.5 3.5q-6.1 1.3-5.5-1.5-3-2-2-8zM235.5 135l1.5 6.5-1.5-.5q-3 .9-1.5-3.5z"/><path fill="#156294" stroke="#156294" d="m117.5 13 18 4 28 10Q188 37 204 55.5l6 12v9q-3.4 11.6-12.5 17.5l-18 10-24 7h-5l-7 2h-8l-1 1-28 1 .5-1.5L123.5 60l8.5 10.5-10 32.5 25.5-2 18-4q19.7-4.8 30.5-18.5l2-4 1-7q-3.1-14.4-13.5-21.5l-25-16-23-10-20-6z"/><path fill="#156294" stroke="#156294" d="m135.5 26 3.5 1.5 3 4-4-3q.8-2.6-2.5-1.5l-17 12q-1.5-2.5-3 1l-2.5 1.5-3.5 4.5 2.5-3.5 3-10.5 6 .5-2 5 2.5-1.5zM143.5 34l2 3zM128.5 39l5 1 5.5-1-.5 3-.5-2-5.5 1-4-1-1.5.5zM147.5 39l2 3zM126.5 43l4 1 2-1 4 1 1.5-.5-6 2.5-.5-2-1.5 1.5 1.5 2.5q-.7-2.7-5-2l-1.5.5zM151.5 44l1 2zM107.5 46l-2 3-6 4 2-3zM155.5 49l1 2zM184.5 51l-.5 1.5-2.5 5.5-11 4-.5-1.5 1-4.5zM125.5 57l4 5zM163.5 59q2.6-.8 1.5 2.5L154 96l-12 2 5-18.5 6.5-16.5zM180.5 62l.5 2.5-8 23V91l-12.5 4-.5-2.5 8-25.5zM145.5 66q3.3-1.1 2.5 1.5l-9 29-1.5 1.5q-3.5 2.5-11 1l.5-1.5 8-27.5zM105.5 92q5.4-1.9 4.5 1.5l-7 21.5H90.5l-.5-2.5L96 93h8.5zM211.5 146l.5 5-3-.5 2-.5zM246.5 146l.5 4 2 .5-3 .5zM24.5 147l.5 3 2 .5-3 .5zM63.5 147l.5 3 2 .5-3 .5zM83.5 147l4.5 3.5-1.5.5zM163.5 147l2 3zM35.5 148l.5 1.5-2.5 1.5v-1q2.5.7 2-2ZM43.5 148l.5 3q-3.7 1.5-3-1.5h2zM103.5 148l3.5 2.5-1.5.5zM114.5 148l-2 3-1.5-.5zM123.5 148l2.5.5-2.5.5zM130.5 148l-2 3-1.5-.5zM169.5 148l2.5.5-2.5.5zM201.5 148l.5 2 2 .5-3 .5zM261.5 148l.5 3-4-.5 3-.5zM292.5 148l.5 3-10-.5 9-.5zM51.5 149l.5 2-4-.5zM75.5 149l2.5.5q.8 3-3 1.5zM94.5 149l-1 2-1.5-.5zM135.5 149l2.5.5q.7 3-3 1.5zM157.5 149l.5 2-4-.5zM188.5 149l2.5.5q.7 3-3 1.5zM220.5 149l3.5 1.5-2.5.5zM227.5 149l2.5 1.5-3 .5zM240.5 149l3.5 1.5-4 .5zM269.5 149l2.5 1.5-1.5.5zM278.5 149l-1 2-1.5-.5zM6.5 150l7.5.5-7.5.5zM120.5 150l2.5.5-2.5.5z"/><path fill="#555d63" stroke="#555d63" d="m197.5 48 3 4zM198.5 67l.5 2.5h-1zM138.5 97l-1 2-1.5-.5zM120.5 114l2.5.5-2.5.5zM5 128q11.5-2.2 15 4.5 2.5 3.5 1 11-3.5 1.5-1 3l-3.5 3.5-1.5-.5-.5 1.5q-1.7-2.7-8-1l-1.5.5zm4 4v16l7-1 2-7-1-5q-2-4-8-3ZM24 128h5v1.5l5.5 14.5 4.5-16 5 .5v19l-1.5 2.5-1.5-1.5-.5-12.5-3.5 12q-2.7-1.1-2 1.5l.5 1.5-2-1-1.5.5 1-2-2-2-3.5-10.5-.5 14q-3 1.3-2-2.5l-1-1zM48 128l4 .5v20l-4 1.5zM63 128h4v10h6.5l1.5-1.5V128l3 .5v20q-1.5 3-3 0 1.5-6-1.5-7.5H67v9.5l-1.5-.5q-2.6.8-1.5-2.5l-1-1zM86.5 128q8-1.5 10.5 2.5 3.7 4.3 2 14l-1 2.5-2 .5q2.7 1.8-1.5 3.5l-2.5-1q1.2 3.7-4 2 1.1-2.7-1.5-2l-3.5-1.5.5-1.5q-2.6.8-1.5-2.5-2.7-1.8-1-8 1.3-5.7 5.5-8.5Zm3.5 3-2 1-3 4q-1 6 1 10l5 3q7-2 4-14zM102 128l3 .5v14l3 6.5 4-2.5 1-2V128l4 .5v15l-2 3 .5 1.5-1.5.5q2.3 1.3-.5 2.5l-2.5-1q1.2 3.7-4 2 1.1-2.7-1.5-2l-3.5-3.5zM123.5 128h7.5v4.5l-2.5-1.5q-4.7-.7-5.5 2.5l3.5 4.5 4.5 3.5 1 6.5-2 .5.5 1.5h-2q-2.6-.7-1.5 2h-4.5v-2q-4.8 1.3-3.5-2l2-.5-2-1 1.5-.5q.5 3.5 5 3 3-.5 2.5-4.5l-8-7q-.7-6.1 1-8.5zM135 128l3 .5v20q-1.5 3-3 0zM142 128h5v1.5l7.5 13.5.5-15 3 .5v20l-4 1.5q1.1-2.7-1.5-2v-2q-2.2.8-1.5-1.5l-4.5-8.5-1 15-2-1-1.5.5zM167.5 128h8l1.5 1.5-1 2 .5 1.5-6-2-4.5 3.5-1 9 2.5 4.5 1.5-.5q-.8 2.6 2.5 1.5 3.3-.7 2.5-5.5l-4-1.5v-4h7q1.5 8.4-1.5 13l-2.5-1v2h-5l-.5-2-1.5.5-2.5-3.5q-2.6.8-1.5-2.5-2.7-1.8-1-8l4.5-7.5zM188 128h10v4h-7v6h7v4h-7v6.5q-1.5 3-3 0zM201 128l4 .5-1 1v9l1 1v11l-1.5-.5q-2.2.8-1.5-1.5l-1-1zM208.5 128q5.4-1.9 4.5 1.5l7.5 13.5.5-15 4 .5v22l-1.5-.5-3 1v-2l-1.5-.5.5-1.5q-2.2.8-1.5-1.5l-5.5-10.5-1.5 15-2.5 1-.5-15.5q2.3-1.2 1-6zM233 128q3.8-1 5 1.5l5 17-1 1 1.5 2.5-4.5-1v-3h-6.5q-4.3 1.7-1.5 3.5l-.5 1.5-3.5-2.5zm3 6-3 6q-1 4 4 2zM246 128q3.8-1 5 1.5l7.5 14.5.5-16 3 .5v19l-1 2.5-4-.5.5-1.5-1.5-.5.5-1.5q-2.2.8-1.5-1.5l-4.5-8.5-1 15-2.5-1-1-4.5zM271.5 128h7.5v4l-4.5-1-5.5 4.5q-1.4 8.9 2.5 12.5 1.5-2.5 3 1l3-2 1.5.5.5-1.5.5 3.5q-1.2 2.8-2.5.5l-1.5.5.5 1.5H272q1.1-2.7-1.5-2-1.7 2.7-3.5-1.5l.5-1.5q-2.2.8-1.5-1.5l-1-1v-8l4.5-7.5zM282 128h11v4h-7v6h6v3h-6v7h6v2h-8.5l-1 1z"/></svg>