<svg xmlns="http://www.w3.org/2000/svg" width="225" height="225"><path fill="#d5cad0" stroke="#d5cad0" d="m51.5 86 3 4zM34.5 92 30 97.5l2.5 2.5 2.5-1.5v12l-1.5 1.5h-7l-.5.5v30h-1v-31l.5-.5H34v-10.5q-2.5 1.8-5-3zM59.5 93l4 5zM67.5 100l4 5zM75.5 107l4 5zM60.5 111l5.5.5-5.5.5zM89.5 111l2.5.5-2.5.5zM97 111h4v8.5l1 2-1 3.5q-6.4 2.3-4-5.5h1q-1.7 5.8 2 4.5v-11.5l-2-.5q1 3.8-1.5 5l-4.5-.5 5-.5zM130.5 111h3.5v5h4q-2.4-7.1 4-5v13.5l-4 .5.5-6 .5 5 2-.5V112q-3.3-1.3-2 3.5-.7 2.3-4.5 1.5-2.5-1.2-1.5-5-3.3.8-2.5-1ZM175.5 111l2.5.5-2.5.5zM75.5 112l.5 30.5h-1zM81.5 113l-2 3zM175.5 113l2.5.5-2.5.5zM168.5 114l2.5.5-2.5.5zM103.5 115l-1 2zM120.5 115l-1 2zM154.5 115l.5 7.5h-1l-1-3zM157.5 115l.5 7 2.5-1-1 2-2.5-1.5zM163.5 115l.5 10-3-.5 2-.5zM179.5 115l.5 9q4 1.4 2-5.5h1v6.5h-4zM187.5 115l1.5 1.5v8.5l-3-.5 2-.5q.7-6.9-.5-9ZM191.5 115l-.5 1.5-.5 1.5-.5-1.5zM199.5 115l.5 10.5h-1zM60.5 117l5.5.5-5.5.5zM116.5 117l2.5 1.5-.5 3.5-.5-4zM53.5 118q4.5-1 5.5 1.5l-.5 5.5-.5-6h-4.5zM125.5 118l.5 3.5-2 1zM114.5 119l.5 5.5h-1zM133.5 119l.5 6-4-.5 3-.5zM172.5 119l1 2zM104.5 120l6.5.5v2l-2.5 2.5 1.5-2.5-1.5-1.5q-5 1-4-1ZM167.5 120l1.5.5-3.5 1.5v-1zM121.5 121l1 2z"/><path fill="#d5cad0" stroke="#d5cad0" d="m143.5 121 2 3 1.5.5-1.5.5q-3.6-1.1-2-4ZM146.5 121l3.5 1.5-2.5.5zM105.5 122l2.5.5-2.5.5zM190.5 122l1 2zM102.5 123l2.5 1.5-1.5.5zM165.5 123l2.5 1.5-1.5.5zM54.5 124l2.5.5-2.5.5zM60.5 124l5.5.5-5.5.5zM89.5 124l2.5.5-2.5.5zM175.5 124l2.5.5-2.5.5zM193 124l2 .5-.5 2.5zM190.5 125l1.5 2.5-2-1zM193.5 128l2.5.5-2.5.5zM89.5 129h9l1 1 2-1 1.5 2.5h-1q.7-2.6-2-1.5 1 3-2 2l-.5-2h-8zM99.5 133l.5 9.5h-1zM102.5 133l.5 9.5h-1zM116.5 133l-1 2zM122.5 133q3.3 1.8 1.5 8.5h-1q.6-6.7-.5-8.5ZM143.5 133l1 2zM153.5 133l1 2zM97.5 135l.5 3-6-.5 5-.5zM107.5 135l3.5 1.5-.5 6.5-.5-7q-3.3.7-2.5-1ZM128.5 135l3.5 1.5-.5 6.5-.5-7q-3.3.7-2.5-1ZM134.5 135l1.5 3.5-1.5 4.5zM141.5 135l2.5 1.5-1.5.5zM113.5 136l2.5 6.5h-3zM115.5 136q2.3-.7 1.5 1.5zM155.5 136l.5 2.5-3.5 2.5.5-1.5.5-1.5 1.5.5zM138.5 137l1.5 3.5-2-1zM142.5 139l-1 2zM144.5 141l-1 2zM154.5 141l-1 2z"/><path fill="#fff" stroke="#fff" d="M0 0h225v225H0zm46 82L29 98q3 4 5 3v10h-8l-1 1v31h51v-29h1q-1 2 2 1 1 3 3-1zm43 29v14h3v-6h5v6h4l1-3v2q1 2 7 1 4-2 1-3l1-4q-1-4-7-3l-2 3-1-7q-6-2-4 5h-5v-5zm41 0v14h4v-6h4v6h4v-14q-6-2-4 5-6 2-4-5zm45 0q-1 5 3 3 2-4-3-3Zm-27 3-2 1q-4 1-3 8 1 3 8 2l3-5 3 5 4-1 3 1v-9l-3-1q1 5-1 7h-2v-7h-4v4l-1-1zm21 0-4 3q-2 4 2 3v1q-3-1-2 3 1 2 7 1 2 0 2-4l-5-3v-1l3 1h2l-1-3zm16 0-1 1h-5v10h4v-7l2-1 1 2v6h3v-8zm9 0-2 1q-3 1-2 8l3 1v1q-4-1-3 2l4 2 4-1 2-2v-11zm-79 1-3 3v7h3v-7h3q2-4-3-3Zm6 0-3 4 1 5 7 1 3-4-1-5q-2-2-7-1Zm54 0v10h3v-9zm-86 14v14h3q2-1 0-2v-3h6v-3q-5 1-6-1l2-2h9l-1-3-2 1-1-1zm21 3-1 1h-5v10h3v-7h3v7h14v-8l-4-3-3 1-2 4q2 1 0 2l-2-4zm31 0-2 1-3 4-3-4h-8v10h3v-7h3v7h4l1-4v2q1 3 8 2l1-4q-3-1-4 2-3-1-2-4 2-4 4 0 3 1 2-2zm-42 1v10h4v-10zm50 0q-4 1-3 8 1 3 8 2l2-4-1-4q-1-3-6-2Z"/><path fill="#fff" stroke="#fff" d="M60 112h6v5h-6zM105 117q3-1 2 2-3 1-2-2ZM122 117q4.9-1.8 3 4.5-2 3.5-4-1zM147.5 117l2.5 1.5q1.7 4.8-2.5 3.5l-1.5-3.5zM194.5 117l2.5 1.5-1.5 3.5-2.5-1.5z"/><path fill="#fff" stroke="#fff" d="M53 119q7.5-2.7 5 5.5l-1.5-.5-3 1zM60 119h6v5h-6zM104.5 121l4.5.5-4.5.5zM168 121l3 .5-3 1.5zM195.5 124l1.5.5-2.5 1.5zM60 126h6v6h-6zM118.5 135q2.6-.7 1.5 2l-3-.5zM150.5 135q2.6-.7 1.5 2l-3-.5zM118 139l3 .5-3 1.5zM149.5 139l3.5.5-2.5 1.5z"/><path fill="#27214c" stroke="#27214c" d="M45.5 82v2l2-1q4.8 2.5 3 5l4 3 1-1 3.5 3.5-.5 1.5 5 4q1.8-2.7 3.5 1.5l-.5 1.5 5 4q1.8-2.8 3.5 1.5l-.5 1.5 5 4 1.5-.5q-2.5 5-5 0l-.5-1.5-1.5 1.5V141H53v-15q7.5-2.7 5 5.5h1v-12l-1-1q2.3-1.2 1-6h-1v4.5h-5l-.5-6-1.5.5.5-1.5-9.5.5.5 1.5-1.5-.5v8.5h-5V98.5L34.5 97l-2 1-1-2q1.7 2.7 3.5-1.5l-1-1zM60 110v8h6v1h-6v6h7v-13q-2-3-7-2Zm0 16v6h7v-6zM130.5 112l.5 11.5h-1zM146.5 115l2.5 1.5-1.5.5zM166.5 115l2.5 1.5-.5 2.5-2 1-1.5-2.5h1l.5 1.5 1.5-2.5z"/><path fill="#27214c" stroke="#27214c" d="M171.5 115v2l1.5.5-1.5.5q-3-1.5 0-3ZM175 115h3v8.5h-1l-.5-7.5-1 8zM180.5 115q2.3-.7 1.5 1.5h1l.5-1.5 1 2-2 1zM195.5 115l.5 2-2-.5zM197 115l2 .5-2 1zM133.5 116v2l5.5-.5-.5-1.5 1.5 3h-7.5l-.5-1.5zM52.5 118l.5 6.5h-1zM145.5 118l.5 2.5h-1zM190.5 118l.5 3.5h-1zM192.5 118l.5 2.5h-1zM171.5 119l-1 2-1.5-.5zM160.5 122l1 2q-2.8.7-1-2ZM193.5 122l2.5.5-2.5.5zM147.5 124l2.5.5-2.5.5zM168.5 124l2.5.5-2.5.5zM191.5 125l2.5 1.5-2 1 .5-1.5zM195.5 126l1 2zM35.5 130l6.5.5-6.5.5zM89.5 130l.5 12 2 .5-3 .5z"/><path fill="#27214c" stroke="#27214c" d="m91 131 6 .5-5 .5q-1.8 4.9 4.5 3v1q-6.7-2.2-4.5 4.5h-1zM35 132h6v9l-5 .5 6 1-7 .5zM104 133l3 1.5h-2l.5 7.5 1-6 .5 7-3-.5zM110.5 133l2.5 1.5-1.5-.5zM117.5 133l2 1 2-1v1l-4 2zM126.5 133q2.3-.7 1.5 1.5h-2l.5 7.5 1-5 .5 6-3-1.5q-1.8-6.7 1.5-8.5Z"/><path fill="#27214c" stroke="#27214c" d="M129.5 133q3.8-.7 4.5 1.5l-1.5-.5q-4 .8-3-1ZM139.5 133h2l1.5.5-2.5 1.5zM149.5 133l3.5.5-2.5 1.5zM137.5 134l-.5 1.5-.5 1.5-.5-1.5zM146.5 136l2.5.5q-.9 3 3.5 1.5v1l-4 1zM117.5 137q2.3-.7 1.5 1.5zM143.5 139l1 2-2.5-.5zM136.5 140l1 2zM118.5 141q2.6-.7 1.5 2l-4-.5zM140.5 141l2.5 1.5-3.5.5zM52.5 142l22.5.5-22.5.5zM121.5 142l2.5.5-2.5.5zM149.5 142l3.5.5-3.5.5z"/><path fill="#d52e35" stroke="#d52e35" d="m34.5 111 .5 10 8-.5q-2.7-1.7-1-8 1.8-3.2 8.5-1.5 3.3 1.8 1.5 8.5l-1 2 1 1V143H42v-13h-7v13h-9v-30.5l.5-.5h7zM89 112h3v5h4.5q2.5-1.2 1.5-5l2 .5V124h-2v-5h-6v5h-3zM104.5 115l5.5 1 1 3.5-7 .5 1.5 3 4-1-2 3-5.5-2.5-1-3zm-.5 2q-1 4 4 2 1-4-4-2ZM114.5 115q4.8-1.3 3.5 2l-4 2.5q2 6.9-2 5.5v-7.5z"/><path fill="#d52e35" stroke="#d52e35" d="M121.5 115q5.5-1 6.5 2.5 1.3 5.3-1.5 6.5l-4 1-3.5-2.5q-1.2-6.2 2.5-7.5Zm1.5 2q-3 1-2 5l4 1q2-1 1-4z"/><path fill="#030338" stroke="#030338" d="M45.5 83 81 113.5q-2 3.5-4-1 2.8-1.8-1.5-3.5l-30-25-13 14 2-1 1.5 1.5V120h5v-8.5l1.5-1.5h9q3 1.6 1.5 7h5v-4.5h1v5.5h-7v-7H42v10h-7l-.5-23q-2.2 4.3-4.5-.5l2-.5 1.5-3z"/><path fill="#030338" stroke="#030338" d="M60.5 110q5.3-1.2 6.5 1.5l-.5 13.5-.5-14h-5.5z"/><path fill="#030338" stroke="#030338" d="m75.5 111-.5 1.5V142H52v-17h7l-.5 7-.5-6h-5v15h21v-28.5zM131 112h2v5h6v-5h2v11.5l-2 .5 1-6.5-1.5.5q-4.8 1.3-6-1l-.5 1.5 1 5.5-2-.5zM147.5 115l4.5 1 1 4.5-2.5 3.5q-5.2 1.3-6.5-1.5-1.2-5.2 1.5-6.5zm.5 1-3 3 1 3q-1 2 4 1 2-1 1-4zM168.5 115l4.5 1.5-1.5.5-3-1-1.5 3 6 1-1.5 4q-6.1 1.3-5.5-1.5l1.5.5q5.3 1.5 3.5-3-3.8 1-5-1.5-1.1-3.3 1.5-2.5zM184.5 115l3.5 1v7.5l-2 .5q1-7.1-1.5-9ZM193.5 115l1.5.5q-3.5.5-3 5l1 2.5 4-1.5-1-5h3v9l-1.5 1.5-4 1-2.5-1.5 1.5-.5 3 1 2.5-4.5-2.5 1.5q-3.7.8-4.5-1.5-1.5-7 1.5-6.5zM155 116l2 .5v6.5h2.5v1q-3.7.8-4.5-1.5zM161 116l2 .5v7l-2-1zM176.5 116l.5 7.5h-1zM180.5 116l2.5.5-1 1v6.5l-2-.5z"/><path fill="#030338" stroke="#030338" d="m66.5 126 .5 5.5h-1zM90 130h7.5l.5 1.5-1.5-.5H91v9.5l.5 1.5-1.5-.5zM35.5 131H42v11l-6-.5 5-.5v-9h-5.5zM109.5 133l3.5 2.5q1.5 7.6-2 6.5v-7h-3.5q-2.9 1.6-2 7l-.5-7.5 2.5-.5zM119.5 133l3.5 1v8h-2.5l.5-1.5q1.1-3.3-1.5-2.5v-1q2.3.8 1.5-1.5zM140.5 133l4.5 2.5-1.5.5-3-2q-3.2.8-2.5 5.5l1.5 2.5-3.5-2.5 2.5-5.5zM100 134l2 .5v7.5l-2-.5zM116.5 134l1.5.5-2.5 1.5zM126.5 134h2q4.5-1 5.5 1.5 1.5 7.6-2 6.5v-7h-4l-1.5 7zM148.5 134l1.5.5-3 3 1 1 1.5 2.5 5-1-1 2q-5.2 1.3-6.5-1.5l-1-3z"/><path fill="#030338" stroke="#030338" d="M151.5 134q3.3-1.1 2.5 1.5l1 2.5-6-.5 4-.5q1.1-2.7-1.5-2zM92.5 136l4.5.5-4.5.5zM116.5 138l1.5.5-1 2 .5 1.5q-3.7 1.3-2.5-2.5zM144.5 139l-.5 1.5q.8 2.6-2.5 1.5v-1z"/></svg>