<svg width="960" height="341" version="1.1" xmlns="http://www.w3.org/2000/svg" desc="Created with imagetracer.js version 1.2.6" ><path fill="rgb(105,14,22)" stroke="rgb(105,14,22)" stroke-width="1" opacity="0.3686274509803922" d="M 0.5 0 L 960 0.5 L 0.5 1 L 0.5 0 Z " /><path fill="rgb(105,14,22)" stroke="rgb(105,14,22)" stroke-width="1" opacity="0.3686274509803922" d="M 0.5 340 L 960 340.5 L 0.5 341 L 0.5 340 Z " /><path fill="rgb(158,23,34)" stroke="rgb(158,23,34)" stroke-width="1" opacity="1" d="M 0 1 L 960 1 L 960 340 L 0 340 L 0 1 Z M 57 58 L 57 283 L 282 283 L 282 58 L 57 58 Z M 533 93 L 524 95 L 518 98 L 509 108 L 506 115 L 504 125 L 504 142 Q 506 143 505 148 L 511 162 Q 517 170 530 172 Q 550 175 561 167 Q 569 162 571 150 L 571 146 L 555 146 L 553 154 Q 550 158 544 159 Q 534 160 529 157 L 523 152 L 520 142 L 520 127 L 524 114 L 533 107 Q 543 105 549 108 Q 554 110 555 118 L 557 119 L 571 119 L 571 116 L 567 106 Q 562 98 554 95 L 545 93 L 533 93 Z M 802 93 L 793 95 L 787 98 Q 781 102 779 110 Q 777 124 783 130 L 794 136 L 820 143 L 823 148 L 822 156 L 815 159 L 805 159 L 798 157 L 793 151 L 793 147 L 777 147 L 778 156 L 783 165 Q 789 170 799 172 L 820 172 L 831 168 Q 837 164 839 156 Q 841 141 835 135 L 825 128 L 801 122 L 795 118 L 796 110 L 800 107 L 815 107 L 819 109 L 821 115 L 822 117 L 837 117 L 836 109 L 832 102 L 823 95 L 814 93 L 802 93 Z M 339 95 L 339 173 L 355 173 L 356 172 L 356 96 L 356 95 L 339 95 Z M 369 95 L 369 171 L 405 171 L 418 168 L 424 164 L 430 155 L 433 143 L 433 122 L 430 110 L 427 105 L 420 98 L 410 95 L 369 95 Z M 445 95 L 445 171 L 461 171 L 461 139 L 493 139 L 494 138 L 494 126 L 461 126 L 461 108 L 498 108 L 498 96 L 498 95 L 445 95 Z M 612 95 L 612 170 L 614 171 L 628 171 L 628 139 L 661 139 L 661 126 L 630 126 L 628 125 L 628 108 L 666 108 L 666 96 L 666 95 L 612 95 Z M 676 95 L 676 171 L 677 171 L 691 171 L 691 96 L 691 95 L 676 95 Z M 706 95 L 706 171 L 721 171 L 722 170 L 722 141 L 736 141 L 753 170 L 755 171 L 773 171 L 754 141 L 760 138 Q 766 134 768 126 Q 770 110 765 103 L 759 97 L 752 95 L 706 95 Z M 843 95 L 843 108 L 865 108 L 865 170 L 867 171 L 881 171 L 881 171 L 881 110 L 883 108 L 904 108 L 904 96 L 904 95 L 843 95 Z M 339 208 L 339 284 L 380 284 Q 381 282 387 283 L 394 280 Q 400 276 402 267 Q 403 255 399 250 L 391 244 L 395 241 L 399 232 L 399 224 L 396 216 Q 392 209 384 208 L 339 208 Z M 537 208 L 537 284 L 538 284 L 551 284 L 552 283 L 552 266 L 558 260 L 571 283 L 572 284 L 588 284 L 569 251 L 569 249 L 587 229 L 570 228 L 559 241 L 552 247 L 552 208 L 537 208 Z M 427 227 L 419 230 Q 414 234 412 241 L 412 245 L 426 245 L 427 242 L 430 239 L 442 239 Q 446 241 445 248 L 444 249 L 426 251 L 417 255 Q 411 259 410 267 L 410 273 L 412 279 Q 415 284 423 285 Q 438 287 445 280 L 447 284 L 459 284 L 460 283 L 460 242 L 458 235 Q 454 229 447 227 L 427 227 Z M 498 227 L 490 231 L 488 234 L 486 234 L 486 228 L 473 228 L 472 229 L 472 283 L 474 284 L 487 284 L 487 250 L 489 243 L 495 239 Q 503 238 506 240 L 508 245 L 508 284 L 523 284 L 523 243 L 520 233 L 513 227 L 498 227 Z " /><path fill="rgb(158,23,34)" stroke="rgb(158,23,34)" stroke-width="1" opacity="1" d="M 74 74 L 264.5 74 L 266 75.5 L 266 266 L 74 266 L 74 74 Z M 94 95 L 94 132 L 95 132 L 245 132 L 245 96 L 245 95 L 94 95 Z M 94 152 L 94 189 L 188 189 L 188 152 L 94 152 Z M 94 209 L 94 246 L 131 246 L 131 209 L 94 209 Z " /><path fill="rgb(158,23,34)" stroke="rgb(158,23,34)" stroke-width="1" opacity="1" d="M 385 108 L 404.5 108 L 414 112.5 L 417 121.5 L 417 142.5 L 414 151.5 L 409.5 156 L 406.5 157 L 385 157 L 385 108 Z " /><path fill="rgb(158,23,34)" stroke="rgb(158,23,34)" stroke-width="1" opacity="1" d="M 722 108 L 744.5 108 L 748.5 109 L 752 112.5 Q 754 123 748.5 126 L 741.5 128 L 722 128 L 722 108 Z " /><path fill="rgb(158,23,34)" stroke="rgb(158,23,34)" stroke-width="1" opacity="1" d="M 355 221 L 376.5 221 L 380.5 222 L 383 224.5 L 384 229.5 L 381.5 236 L 375.5 238 L 355 238 L 355 221 Z " /><path fill="rgb(158,23,34)" stroke="rgb(158,23,34)" stroke-width="1" opacity="1" d="M 355 251 L 379.5 251 L 385 254.5 L 386 263.5 L 382.5 269 Q 378.7 271.7 370.5 270 L 369.5 271 L 355 271 L 355 251 Z " /><path fill="rgb(158,23,34)" stroke="rgb(158,23,34)" stroke-width="1" opacity="1" d="M 443.5 258 Q 446.5 257.5 445 264.5 L 441.5 272 Q 437.8 275.3 429.5 274 L 426 271.5 L 425 265.5 L 428.5 261 L 443.5 258 Z " /><path fill="rgb(231,201,203)" stroke="rgb(231,201,203)" stroke-width="1" opacity="1" d="M 57.5 58 L 58 282 L 281 282 L 281 58.5 L 282 58.5 L 282 283 L 57 283 L 57.5 58 Z " /><path fill="rgb(231,201,203)" stroke="rgb(231,201,203)" stroke-width="1" opacity="1" d="M 73.5 74 L 74 266 L 266 266.5 L 73 267 L 73.5 74 Z " /><path fill="rgb(231,201,203)" stroke="rgb(231,201,203)" stroke-width="1" opacity="1" d="M 532.5 93 L 545 93.5 L 532.5 94 L 532.5 93 Z " /><path fill="rgb(231,201,203)" stroke="rgb(231,201,203)" stroke-width="1" opacity="1" d="M 801.5 93 L 814 93.5 L 801.5 94 L 801.5 93 Z " /><path fill="rgb(231,201,203)" stroke="rgb(231,201,203)" stroke-width="1" opacity="1" d="M 355.5 95 L 356 171.5 L 354.5 173 L 339.5 173 L 339.5 172 L 354.5 172 L 355 171.5 L 355.5 95 Z " /><path fill="rgb(231,201,203)" stroke="rgb(231,201,203)" stroke-width="1" opacity="1" d="M 369.5 95 L 370 170 L 405 170.5 L 369 171 L 369.5 95 Z " /><path fill="rgb(231,201,203)" stroke="rgb(231,201,203)" stroke-width="1" opacity="1" d="M 406.5 95 L 410 95.5 L 406.5 96 L 406.5 95 Z " /><path fill="rgb(231,201,203)" stroke="rgb(231,201,203)" stroke-width="1" opacity="1" d="M 445.5 95 L 446 170 L 460 170 L 460 139.5 L 461.5 138 L 493 138 L 493.5 126 L 494 137.5 L 492.5 139 L 461 139 L 461 171 L 445 171 L 445.5 95 Z " /><path fill="rgb(231,201,203)" stroke="rgb(231,201,203)" stroke-width="1" opacity="1" d="M 612.5 95 L 613 170 L 628 170.5 L 613.5 171 L 612 169.5 L 612.5 95 Z " /><path fill="rgb(231,201,203)" stroke="rgb(231,201,203)" stroke-width="1" opacity="1" d="M 665.5 95 L 666 107.5 L 665 107.5 L 665.5 95 Z " /><path fill="rgb(231,201,203)" stroke="rgb(231,201,203)" stroke-width="1" opacity="1" d="M 746.5 95 L 752 95.5 L 746.5 96 L 746.5 95 Z " /><path fill="rgb(231,201,203)" stroke="rgb(231,201,203)" stroke-width="1" opacity="1" d="M 903.5 95 L 904 107.5 L 903 107.5 L 903.5 95 Z " /><path fill="rgb(231,201,203)" stroke="rgb(231,201,203)" stroke-width="1" opacity="1" d="M 419.5 98 L 420.5 100 L 419.5 98 Z " /><path fill="rgb(231,201,203)" stroke="rgb(231,201,203)" stroke-width="1" opacity="1" d="M 517.5 98 L 515.5 101 L 517.5 98 Z " /><path fill="rgb(231,201,203)" stroke="rgb(231,201,203)" stroke-width="1" opacity="1" d="M 559.5 98 L 560.5 100 L 559.5 98 Z " /><path fill="rgb(231,201,203)" stroke="rgb(231,201,203)" stroke-width="1" opacity="1" d="M 786.5 98 L 782.5 103 L 786.5 98 Z " /><path fill="rgb(231,201,203)" stroke="rgb(231,201,203)" stroke-width="1" opacity="1" d="M 761.5 99 L 764.5 103 L 761.5 99 Z " /><path fill="rgb(231,201,203)" stroke="rgb(231,201,203)" stroke-width="1" opacity="1" d="M 829.5 99 L 831.5 102 L 829.5 99 Z " /><path fill="rgb(231,201,203)" stroke="rgb(231,201,203)" stroke-width="1" opacity="1" d="M 422.5 100 L 426.5 105 L 422.5 100 Z " /><path fill="rgb(231,201,203)" stroke="rgb(231,201,203)" stroke-width="1" opacity="1" d="M 513.5 102 L 511.5 105 L 513.5 102 Z " /><path fill="rgb(231,201,203)" stroke="rgb(231,201,203)" stroke-width="1" opacity="1" d="M 564.5 103 L 566.5 106 L 564.5 103 Z " /><path fill="rgb(231,201,203)" stroke="rgb(231,201,203)" stroke-width="1" opacity="1" d="M 427.5 106 L 428.5 108 L 427.5 106 Z " /><path fill="rgb(231,201,203)" stroke="rgb(231,201,203)" stroke-width="1" opacity="1" d="M 534.5 106 L 543 106.5 L 534.5 107 L 534.5 106 Z " /><path fill="rgb(231,201,203)" stroke="rgb(231,201,203)" stroke-width="1" opacity="1" d="M 802.5 106 L 812 106.5 L 802.5 107 L 802.5 106 Z " /><path fill="rgb(231,201,203)" stroke="rgb(231,201,203)" stroke-width="1" opacity="1" d="M 384.5 108 L 385 157 L 405 157.5 L 384 158 L 384.5 108 Z " /><path fill="rgb(231,201,203)" stroke="rgb(231,201,203)" stroke-width="1" opacity="1" d="M 405.5 108 L 408 108.5 L 405.5 109 L 405.5 108 Z " /><path fill="rgb(231,201,203)" stroke="rgb(231,201,203)" stroke-width="1" opacity="1" d="M 460.5 108 L 461 125.5 L 460 125.5 L 460.5 108 Z " /><path fill="rgb(231,201,203)" stroke="rgb(231,201,203)" stroke-width="1" opacity="1" d="M 549.5 108 L 552.5 112 L 549.5 108 Z " /><path fill="rgb(231,201,203)" stroke="rgb(231,201,203)" stroke-width="1" opacity="1" d="M 721.5 108 L 722 127.5 L 721 127.5 L 721.5 108 Z " /><path fill="rgb(231,201,203)" stroke="rgb(231,201,203)" stroke-width="1" opacity="1" d="M 865.5 108 L 866 170 L 881 170.5 L 866.5 171 L 865 169.5 L 865.5 108 Z " /><path fill="rgb(231,201,203)" stroke="rgb(231,201,203)" stroke-width="1" opacity="1" d="M 527.5 109 L 524.5 113 L 527.5 109 Z " /><path fill="rgb(231,201,203)" stroke="rgb(231,201,203)" stroke-width="1" opacity="1" d="M 749.5 109 L 751.5 112 L 749.5 109 Z " /><path fill="rgb(231,201,203)" stroke="rgb(231,201,203)" stroke-width="1" opacity="1" d="M 779.5 109 L 780 111.5 L 779 111.5 L 779.5 109 Z " /><path fill="rgb(231,201,203)" stroke="rgb(231,201,203)" stroke-width="1" opacity="1" d="M 767.5 110 L 768 112.5 L 767 112.5 L 767.5 110 Z " /><path fill="rgb(231,201,203)" stroke="rgb(231,201,203)" stroke-width="1" opacity="1" d="M 794.5 112 L 795 115.5 L 794 115.5 L 794.5 112 Z " /><path fill="rgb(231,201,203)" stroke="rgb(231,201,203)" stroke-width="1" opacity="1" d="M 836.5 113 L 837 116.5 L 836 116.5 L 836.5 113 Z " /><path fill="rgb(231,201,203)" stroke="rgb(231,201,203)" stroke-width="1" opacity="1" d="M 752.5 114 L 753 119.5 L 752 119.5 L 752.5 114 Z " /><path fill="rgb(231,201,203)" stroke="rgb(231,201,203)" stroke-width="1" opacity="1" d="M 431.5 115 L 432 117.5 L 431 117.5 L 431.5 115 Z " /><path fill="rgb(231,201,203)" stroke="rgb(231,201,203)" stroke-width="1" opacity="1" d="M 570.5 115 L 571 119 L 556 118.5 L 570 118 L 570.5 115 Z " /><path fill="rgb(231,201,203)" stroke="rgb(231,201,203)" stroke-width="1" opacity="1" d="M 416.5 118 L 417 120.5 L 416 120.5 L 416.5 118 Z " /><path fill="rgb(231,201,203)" stroke="rgb(231,201,203)" stroke-width="1" opacity="1" d="M 505.5 118 L 506 120.5 L 505 120.5 L 505.5 118 Z " /><path fill="rgb(231,201,203)" stroke="rgb(231,201,203)" stroke-width="1" opacity="1" d="M 795.5 118 L 797.5 121 L 795.5 118 Z " /><path fill="rgb(231,201,203)" stroke="rgb(231,201,203)" stroke-width="1" opacity="1" d="M 779.5 119 L 780 121.5 L 779 121.5 L 779.5 119 Z " /><path fill="rgb(231,201,203)" stroke="rgb(231,201,203)" stroke-width="1" opacity="1" d="M 432.5 121 L 433 126.5 L 432 126.5 L 432.5 121 Z " /><path fill="rgb(231,201,203)" stroke="rgb(231,201,203)" stroke-width="1" opacity="1" d="M 751.5 122 L 752 123.5 L 747.5 127 L 747.5 126 L 751 123.5 L 751.5 122 Z " /><path fill="rgb(231,201,203)" stroke="rgb(231,201,203)" stroke-width="1" opacity="1" d="M 520.5 123 L 521 125.5 L 520 125.5 L 520.5 123 Z " /><path fill="rgb(231,201,203)" stroke="rgb(231,201,203)" stroke-width="1" opacity="1" d="M 767.5 123 L 768 125.5 L 767 125.5 L 767.5 123 Z " /><path fill="rgb(231,201,203)" stroke="rgb(231,201,203)" stroke-width="1" opacity="1" d="M 504.5 124 L 505 141.5 L 504 141.5 L 504.5 124 Z " /><path fill="rgb(231,201,203)" stroke="rgb(231,201,203)" stroke-width="1" opacity="1" d="M 660.5 126 L 661 139 L 628 138.5 L 660 138 L 660.5 126 Z " /><path fill="rgb(231,201,203)" stroke="rgb(231,201,203)" stroke-width="1" opacity="1" d="M 417.5 127 L 418 135.5 L 417 135.5 L 417.5 127 Z " /><path fill="rgb(231,201,203)" stroke="rgb(231,201,203)" stroke-width="1" opacity="1" d="M 742.5 127 L 746 127.5 L 742.5 128 L 742.5 127 Z " /><path fill="rgb(231,201,203)" stroke="rgb(231,201,203)" stroke-width="1" opacity="1" d="M 783.5 129 L 784.5 131 L 783.5 129 Z " /><path fill="rgb(231,201,203)" stroke="rgb(231,201,203)" stroke-width="1" opacity="1" d="M 94.5 131 L 245 131.5 L 94.5 132 L 94.5 131 Z " /><path fill="rgb(231,201,203)" stroke="rgb(231,201,203)" stroke-width="1" opacity="1" d="M 833.5 133 L 834.5 135 L 833.5 133 Z " /><path fill="rgb(231,201,203)" stroke="rgb(231,201,203)" stroke-width="1" opacity="1" d="M 760.5 136 L 759.5 138 L 760.5 136 Z " /><path fill="rgb(231,201,203)" stroke="rgb(231,201,203)" stroke-width="1" opacity="1" d="M 432.5 138 L 433 142.5 L 432 142.5 L 432.5 138 Z " /><path fill="rgb(231,201,203)" stroke="rgb(231,201,203)" stroke-width="1" opacity="1" d="M 754.5 139 L 754.5 142 Q 751.5 140.5 754.5 139 Z " /><path fill="rgb(231,201,203)" stroke="rgb(231,201,203)" stroke-width="1" opacity="1" d="M 722.5 140 L 736 140.5 L 722 141 L 722 169.5 L 720.5 171 L 706 170.5 L 721 170 L 721 141.5 L 722.5 140 Z " /><path fill="rgb(231,201,203)" stroke="rgb(231,201,203)" stroke-width="1" opacity="1" d="M 520.5 142 L 521 144.5 L 520 144.5 L 520.5 142 Z " /><path fill="rgb(231,201,203)" stroke="rgb(231,201,203)" stroke-width="1" opacity="1" d="M 838.5 142 L 839 144.5 L 838 144.5 L 838.5 142 Z " /><path fill="rgb(231,201,203)" stroke="rgb(231,201,203)" stroke-width="1" opacity="1" d="M 416.5 143 L 417 145.5 L 416 145.5 L 416.5 143 Z " /><path fill="rgb(231,201,203)" stroke="rgb(231,201,203)" stroke-width="1" opacity="1" d="M 755.5 143 L 756.5 145 L 755.5 143 Z " /><path fill="rgb(231,201,203)" stroke="rgb(231,201,203)" stroke-width="1" opacity="1" d="M 820.5 143 L 823 146.5 L 822 146.5 L 820.5 143 Z " /><path fill="rgb(231,201,203)" stroke="rgb(231,201,203)" stroke-width="1" opacity="1" d="M 738.5 145 L 739.5 147 L 738.5 145 Z " /><path fill="rgb(231,201,203)" stroke="rgb(231,201,203)" stroke-width="1" opacity="1" d="M 431.5 146 L 432 148.5 L 431 148.5 L 431.5 146 Z " /><path fill="rgb(231,201,203)" stroke="rgb(231,201,203)" stroke-width="1" opacity="1" d="M 570.5 147 L 571 149.5 L 570 149.5 L 570.5 147 Z " /><path fill="rgb(231,201,203)" stroke="rgb(231,201,203)" stroke-width="1" opacity="1" d="M 777.5 147 L 778 150.5 L 777 150.5 L 777.5 147 Z " /><path fill="rgb(231,201,203)" stroke="rgb(231,201,203)" stroke-width="1" opacity="1" d="M 823.5 148 L 824 151.5 L 823 151.5 L 823.5 148 Z " /><path fill="rgb(231,201,203)" stroke="rgb(231,201,203)" stroke-width="1" opacity="1" d="M 741.5 150 L 742.5 152 L 741.5 150 Z " /><path fill="rgb(231,201,203)" stroke="rgb(231,201,203)" stroke-width="1" opacity="1" d="M 760.5 151 L 761.5 153 L 760.5 151 Z " /><path fill="rgb(231,201,203)" stroke="rgb(231,201,203)" stroke-width="1" opacity="1" d="M 413.5 152 L 410.5 156 L 413.5 152 Z " /><path fill="rgb(231,201,203)" stroke="rgb(231,201,203)" stroke-width="1" opacity="1" d="M 523.5 152 L 527.5 157 L 523.5 152 Z " /><path fill="rgb(231,201,203)" stroke="rgb(231,201,203)" stroke-width="1" opacity="1" d="M 743.5 153 L 744.5 155 L 743.5 153 Z " /><path fill="rgb(231,201,203)" stroke="rgb(231,201,203)" stroke-width="1" opacity="1" d="M 838.5 153 L 839 155.5 L 838 155.5 L 838.5 153 Z " /><path fill="rgb(231,201,203)" stroke="rgb(231,201,203)" stroke-width="1" opacity="1" d="M 552.5 154 L 550.5 157 L 552.5 154 Z " /><path fill="rgb(231,201,203)" stroke="rgb(231,201,203)" stroke-width="1" opacity="1" d="M 762.5 154 L 763.5 156 L 762.5 154 Z " /><path fill="rgb(231,201,203)" stroke="rgb(231,201,203)" stroke-width="1" opacity="1" d="M 794.5 154 L 796.5 157 L 794.5 154 Z " /><path fill="rgb(231,201,203)" stroke="rgb(231,201,203)" stroke-width="1" opacity="1" d="M 427.5 158 L 426.5 160 L 427.5 158 Z " /><path fill="rgb(231,201,203)" stroke="rgb(231,201,203)" stroke-width="1" opacity="1" d="M 746.5 158 L 747.5 160 L 746.5 158 Z " /><path fill="rgb(231,201,203)" stroke="rgb(231,201,203)" stroke-width="1" opacity="1" d="M 801.5 158 L 804 158.5 L 801.5 159 L 801.5 158 Z " /><path fill="rgb(231,201,203)" stroke="rgb(231,201,203)" stroke-width="1" opacity="1" d="M 815.5 158 L 818 158.5 L 815.5 159 L 815.5 158 Z " /><path fill="rgb(231,201,203)" stroke="rgb(231,201,203)" stroke-width="1" opacity="1" d="M 566.5 160 L 560.5 167 L 566.5 160 Z " /><path fill="rgb(231,201,203)" stroke="rgb(231,201,203)" stroke-width="1" opacity="1" d="M 511.5 161 L 516.5 167 L 511.5 161 Z " /><path fill="rgb(231,201,203)" stroke="rgb(231,201,203)" stroke-width="1" opacity="1" d="M 748.5 161 L 749.5 163 L 748.5 161 Z " /><path fill="rgb(231,201,203)" stroke="rgb(231,201,203)" stroke-width="1" opacity="1" d="M 424.5 162 L 423.5 164 L 424.5 162 Z " /><path fill="rgb(231,201,203)" stroke="rgb(231,201,203)" stroke-width="1" opacity="1" d="M 835.5 162 L 830.5 168 L 835.5 162 Z " /><path fill="rgb(231,201,203)" stroke="rgb(231,201,203)" stroke-width="1" opacity="1" d="M 783.5 164 L 784.5 166 L 783.5 164 Z " /><path fill="rgb(231,201,203)" stroke="rgb(231,201,203)" stroke-width="1" opacity="1" d="M 769.5 165 L 770.5 167 L 769.5 165 Z " /><path fill="rgb(231,201,203)" stroke="rgb(231,201,203)" stroke-width="1" opacity="1" d="M 751.5 166 L 752.5 168 L 751.5 166 Z " /><path fill="rgb(231,201,203)" stroke="rgb(231,201,203)" stroke-width="1" opacity="1" d="M 771.5 168 L 773 171 L 754.5 171 L 753 169.5 L 754.5 170 L 772 169.5 L 771.5 168 Z " /><path fill="rgb(231,201,203)" stroke="rgb(231,201,203)" stroke-width="1" opacity="1" d="M 409.5 169 L 412 169.5 L 409.5 170 L 409.5 169 Z " /><path fill="rgb(231,201,203)" stroke="rgb(231,201,203)" stroke-width="1" opacity="1" d="M 676.5 170 L 691 170.5 L 676.5 171 L 676.5 170 Z " /><path fill="rgb(231,201,203)" stroke="rgb(231,201,203)" stroke-width="1" opacity="1" d="M 529.5 171 L 532 171.5 L 529.5 172 L 529.5 171 Z " /><path fill="rgb(231,201,203)" stroke="rgb(231,201,203)" stroke-width="1" opacity="1" d="M 545.5 171 L 548 171.5 L 545.5 172 L 545.5 171 Z " /><path fill="rgb(231,201,203)" stroke="rgb(231,201,203)" stroke-width="1" opacity="1" d="M 798.5 171 L 802 171.5 L 798.5 172 L 798.5 171 Z " /><path fill="rgb(231,201,203)" stroke="rgb(231,201,203)" stroke-width="1" opacity="1" d="M 817.5 171 L 820 171.5 L 817.5 172 L 817.5 171 Z " /><path fill="rgb(231,201,203)" stroke="rgb(231,201,203)" stroke-width="1" opacity="1" d="M 94.5 188 L 188 188.5 L 94.5 189 L 94.5 188 Z " /><path fill="rgb(231,201,203)" stroke="rgb(231,201,203)" stroke-width="1" opacity="1" d="M 378.5 208 L 384 208.5 L 378.5 209 L 378.5 208 Z " /><path fill="rgb(231,201,203)" stroke="rgb(231,201,203)" stroke-width="1" opacity="1" d="M 551.5 208 L 552.5 247 L 557 243.5 L 551 248.5 L 551.5 208 Z " /><path fill="rgb(231,201,203)" stroke="rgb(231,201,203)" stroke-width="1" opacity="1" d="M 94.5 209 L 131 209 L 131 245.5 L 130 245.5 L 130 210 L 94.5 210 L 94.5 209 Z " /><path fill="rgb(231,201,203)" stroke="rgb(231,201,203)" stroke-width="1" opacity="1" d="M 391.5 211 L 395.5 216 L 391.5 211 Z " /><path fill="rgb(231,201,203)" stroke="rgb(231,201,203)" stroke-width="1" opacity="1" d="M 354.5 221 L 355 237.5 L 354 237.5 L 354.5 221 Z " /><path fill="rgb(231,201,203)" stroke="rgb(231,201,203)" stroke-width="1" opacity="1" d="M 377.5 221 L 380 221.5 L 377.5 222 L 377.5 221 Z " /><path fill="rgb(231,201,203)" stroke="rgb(231,201,203)" stroke-width="1" opacity="1" d="M 381.5 222 L 382.5 224 L 381.5 222 Z " /><path fill="rgb(231,201,203)" stroke="rgb(231,201,203)" stroke-width="1" opacity="1" d="M 398.5 223 L 399 231.5 L 398 231.5 L 398.5 223 Z " /><path fill="rgb(231,201,203)" stroke="rgb(231,201,203)" stroke-width="1" opacity="1" d="M 426.5 227 L 429 227.5 L 426.5 228 L 426.5 227 Z " /><path fill="rgb(231,201,203)" stroke="rgb(231,201,203)" stroke-width="1" opacity="1" d="M 443.5 227 L 447 227.5 L 443.5 228 L 443.5 227 Z " /><path fill="rgb(231,201,203)" stroke="rgb(231,201,203)" stroke-width="1" opacity="1" d="M 472.5 228 L 473 283 L 487 283.5 L 473.5 284 L 472 282.5 L 472.5 228 Z " /><path fill="rgb(231,201,203)" stroke="rgb(231,201,203)" stroke-width="1" opacity="1" d="M 569.5 228 L 566.5 232 L 569.5 228 Z " /><path fill="rgb(231,201,203)" stroke="rgb(231,201,203)" stroke-width="1" opacity="1" d="M 516.5 229 L 519.5 233 L 516.5 229 Z " /><path fill="rgb(231,201,203)" stroke="rgb(231,201,203)" stroke-width="1" opacity="1" d="M 383.5 230 L 384 233.5 L 383 233.5 L 383.5 230 Z " /><path fill="rgb(231,201,203)" stroke="rgb(231,201,203)" stroke-width="1" opacity="1" d="M 418.5 230 L 415.5 234 L 418.5 230 Z " /><path fill="rgb(231,201,203)" stroke="rgb(231,201,203)" stroke-width="1" opacity="1" d="M 585.5 230 L 578.5 238 L 585.5 230 Z " /><path fill="rgb(231,201,203)" stroke="rgb(231,201,203)" stroke-width="1" opacity="1" d="M 489.5 231 L 488.5 233 L 489.5 231 Z " /><path fill="rgb(231,201,203)" stroke="rgb(231,201,203)" stroke-width="1" opacity="1" d="M 456.5 233 L 457.5 235 L 456.5 233 Z " /><path fill="rgb(231,201,203)" stroke="rgb(231,201,203)" stroke-width="1" opacity="1" d="M 563.5 235 L 559.5 240 L 563.5 235 Z " /><path fill="rgb(231,201,203)" stroke="rgb(231,201,203)" stroke-width="1" opacity="1" d="M 376.5 237 L 379 237.5 L 376.5 238 L 376.5 237 Z " /><path fill="rgb(231,201,203)" stroke="rgb(231,201,203)" stroke-width="1" opacity="1" d="M 431.5 238 L 440 238.5 L 431.5 239 L 431.5 238 Z " /><path fill="rgb(231,201,203)" stroke="rgb(231,201,203)" stroke-width="1" opacity="1" d="M 496.5 238 L 501 238.5 L 496.5 239 L 496.5 238 Z " /><path fill="rgb(231,201,203)" stroke="rgb(231,201,203)" stroke-width="1" opacity="1" d="M 395.5 239 L 394.5 241 L 395.5 239 Z " /><path fill="rgb(231,201,203)" stroke="rgb(231,201,203)" stroke-width="1" opacity="1" d="M 428.5 239 L 427 241.5 L 426.5 243 L 426 241.5 L 428.5 239 Z " /><path fill="rgb(231,201,203)" stroke="rgb(231,201,203)" stroke-width="1" opacity="1" d="M 442.5 239 L 443.5 241 L 442.5 239 Z " /><path fill="rgb(231,201,203)" stroke="rgb(231,201,203)" stroke-width="1" opacity="1" d="M 412.5 240 L 413 244.5 L 412 244.5 L 412.5 240 Z " /><path fill="rgb(231,201,203)" stroke="rgb(231,201,203)" stroke-width="1" opacity="1" d="M 459.5 241 L 460 282.5 L 458.5 284 L 446.5 284 Q 444.3 283.3 445 279.5 L 446 279.5 L 446.5 283 L 459 283 L 459.5 241 Z " /><path fill="rgb(231,201,203)" stroke="rgb(231,201,203)" stroke-width="1" opacity="1" d="M 506.5 241 L 508 243.5 L 507 243.5 L 506.5 241 Z " /><path fill="rgb(231,201,203)" stroke="rgb(231,201,203)" stroke-width="1" opacity="1" d="M 391.5 242 L 390.5 244 L 391.5 242 Z " /><path fill="rgb(231,201,203)" stroke="rgb(231,201,203)" stroke-width="1" opacity="1" d="M 522.5 242 L 523 284 L 508 284 L 508 249.5 L 509 249.5 L 509 283 L 522 283 L 522.5 242 Z " /><path fill="rgb(231,201,203)" stroke="rgb(231,201,203)" stroke-width="1" opacity="1" d="M 573.5 243 L 569 248.5 L 568.5 250 L 568 248.5 L 573.5 243 Z " /><path fill="rgb(231,201,203)" stroke="rgb(231,201,203)" stroke-width="1" opacity="1" d="M 394.5 245 L 398.5 250 L 394.5 245 Z " /><path fill="rgb(231,201,203)" stroke="rgb(231,201,203)" stroke-width="1" opacity="1" d="M 487.5 246 L 488 248.5 L 487 248.5 L 487.5 246 Z " /><path fill="rgb(231,201,203)" stroke="rgb(231,201,203)" stroke-width="1" opacity="1" d="M 438.5 249 L 441 249.5 L 438.5 250 L 438.5 249 Z " /><path fill="rgb(231,201,203)" stroke="rgb(231,201,203)" stroke-width="1" opacity="1" d="M 354 250 L 377 250.5 L 355 251 L 354.5 271 L 354 250 Z " /><path fill="rgb(231,201,203)" stroke="rgb(231,201,203)" stroke-width="1" opacity="1" d="M 431.5 250 L 434 250.5 L 431.5 251 L 431.5 250 Z " /><path fill="rgb(231,201,203)" stroke="rgb(231,201,203)" stroke-width="1" opacity="1" d="M 425.5 251 L 428 251.5 L 425.5 252 L 425.5 251 Z " /><path fill="rgb(231,201,203)" stroke="rgb(231,201,203)" stroke-width="1" opacity="1" d="M 383.5 252 L 384.5 254 L 383.5 252 Z " /><path fill="rgb(231,201,203)" stroke="rgb(231,201,203)" stroke-width="1" opacity="1" d="M 570.5 253 L 571.5 255 L 570.5 253 Z " /><path fill="rgb(231,201,203)" stroke="rgb(231,201,203)" stroke-width="1" opacity="1" d="M 416.5 255 L 413.5 259 L 416.5 255 Z " /><path fill="rgb(231,201,203)" stroke="rgb(231,201,203)" stroke-width="1" opacity="1" d="M 401.5 257 L 402 266.5 L 401 266.5 L 401.5 257 Z " /><path fill="rgb(231,201,203)" stroke="rgb(231,201,203)" stroke-width="1" opacity="1" d="M 440.5 258 L 443 258.5 L 440.5 259 L 440.5 258 Z " /><path fill="rgb(231,201,203)" stroke="rgb(231,201,203)" stroke-width="1" opacity="1" d="M 434.5 259 L 437 259.5 L 434.5 260 L 434.5 259 Z " /><path fill="rgb(231,201,203)" stroke="rgb(231,201,203)" stroke-width="1" opacity="1" d="M 557.5 259 L 558.5 261 L 557.5 260 L 554 262.5 L 557.5 259 Z " /><path fill="rgb(231,201,203)" stroke="rgb(231,201,203)" stroke-width="1" opacity="1" d="M 574.5 260 L 575.5 262 L 574.5 260 Z " /><path fill="rgb(231,201,203)" stroke="rgb(231,201,203)" stroke-width="1" opacity="1" d="M 427.5 261 L 426.5 263 L 427.5 261 Z " /><path fill="rgb(231,201,203)" stroke="rgb(231,201,203)" stroke-width="1" opacity="1" d="M 559.5 262 L 560.5 264 L 559.5 262 Z " /><path fill="rgb(231,201,203)" stroke="rgb(231,201,203)" stroke-width="1" opacity="1" d="M 444.5 265 L 445 267.5 L 444 267.5 L 444.5 265 Z " /><path fill="rgb(231,201,203)" stroke="rgb(231,201,203)" stroke-width="1" opacity="1" d="M 577.5 265 L 578.5 267 L 577.5 265 Z " /><path fill="rgb(231,201,203)" stroke="rgb(231,201,203)" stroke-width="1" opacity="1" d="M 410.5 266 L 411 272.5 L 410 272.5 L 410.5 266 Z " /><path fill="rgb(231,201,203)" stroke="rgb(231,201,203)" stroke-width="1" opacity="1" d="M 551.5 266 L 552 282.5 L 550.5 284 L 537.5 284 L 537.5 283 L 551 283 L 551.5 266 Z " /><path fill="rgb(231,201,203)" stroke="rgb(231,201,203)" stroke-width="1" opacity="1" d="M 384.5 267 L 383.5 269 L 384.5 267 Z " /><path fill="rgb(231,201,203)" stroke="rgb(231,201,203)" stroke-width="1" opacity="1" d="M 370.5 270 L 379 270.5 L 370.5 271 L 370.5 270 Z " /><path fill="rgb(231,201,203)" stroke="rgb(231,201,203)" stroke-width="1" opacity="1" d="M 564.5 271 L 565.5 273 L 564.5 271 Z " /><path fill="rgb(231,201,203)" stroke="rgb(231,201,203)" stroke-width="1" opacity="1" d="M 581.5 272 L 582.5 274 L 581.5 272 Z " /><path fill="rgb(231,201,203)" stroke="rgb(231,201,203)" stroke-width="1" opacity="1" d="M 398.5 274 L 397.5 276 L 398.5 274 Z " /><path fill="rgb(231,201,203)" stroke="rgb(231,201,203)" stroke-width="1" opacity="1" d="M 584.5 277 L 585.5 279 L 584.5 277 Z " /><path fill="rgb(231,201,203)" stroke="rgb(231,201,203)" stroke-width="1" opacity="1" d="M 394.5 278 L 393.5 280 L 394.5 278 Z " /><path fill="rgb(231,201,203)" stroke="rgb(231,201,203)" stroke-width="1" opacity="1" d="M 412.5 278 L 416.5 283 L 412.5 278 Z " /><path fill="rgb(231,201,203)" stroke="rgb(231,201,203)" stroke-width="1" opacity="1" d="M 384.5 282 L 387 282.5 L 384.5 283 L 384.5 282 Z " /><path fill="rgb(231,201,203)" stroke="rgb(231,201,203)" stroke-width="1" opacity="1" d="M 587.5 282 L 588 284 L 571 283.5 L 586.5 283 L 587.5 282 Z " /><path fill="rgb(231,201,203)" stroke="rgb(231,201,203)" stroke-width="1" opacity="1" d="M 339.5 283 L 380 283.5 L 339.5 284 L 339.5 283 Z " /><path fill="rgb(231,201,203)" stroke="rgb(231,201,203)" stroke-width="1" opacity="1" d="M 422.5 284 L 425 284.5 L 422.5 285 L 422.5 284 Z " /><path fill="rgb(231,201,203)" stroke="rgb(231,201,203)" stroke-width="1" opacity="1" d="M 431.5 284 L 435 284.5 L 431.5 285 L 431.5 284 Z " /><path fill="rgb(254,253,253)" stroke="rgb(254,253,253)" stroke-width="1" opacity="1" d="M 58.5 58 L 281 58.5 L 58.5 59 L 58.5 58 Z " /><path fill="rgb(254,253,253)" stroke="rgb(254,253,253)" stroke-width="1" opacity="1" d="M 339.5 95 L 340 171.5 L 339 171.5 L 339.5 95 Z " /><path fill="rgb(254,253,253)" stroke="rgb(254,253,253)" stroke-width="1" opacity="1" d="M 403.5 95 L 406 95.5 L 403.5 96 L 403.5 95 Z " /><path fill="rgb(254,253,253)" stroke="rgb(254,253,253)" stroke-width="1" opacity="1" d="M 827.5 98 L 828.5 100 L 827.5 98 Z " /><path fill="rgb(254,253,253)" stroke="rgb(254,253,253)" stroke-width="1" opacity="1" d="M 561.5 100 L 563.5 103 L 561.5 100 Z " /><path fill="rgb(254,253,253)" stroke="rgb(254,253,253)" stroke-width="1" opacity="1" d="M 384.5 107 L 398 107.5 L 384.5 108 L 384.5 107 Z " /><path fill="rgb(254,253,253)" stroke="rgb(254,253,253)" stroke-width="1" opacity="1" d="M 460.5 107 L 498 107.5 L 460.5 108 L 460.5 107 Z " /><path fill="rgb(254,253,253)" stroke="rgb(254,253,253)" stroke-width="1" opacity="1" d="M 628.5 107 L 665 107.5 L 628.5 108 L 628.5 107 Z " /><path fill="rgb(254,253,253)" stroke="rgb(254,253,253)" stroke-width="1" opacity="1" d="M 721.5 107 L 739 107.5 L 721.5 108 L 721.5 107 Z " /><path fill="rgb(254,253,253)" stroke="rgb(254,253,253)" stroke-width="1" opacity="1" d="M 797.5 107 L 795.5 110 L 797.5 107 Z " /><path fill="rgb(254,253,253)" stroke="rgb(254,253,253)" stroke-width="1" opacity="1" d="M 818.5 108 L 819.5 110 L 818.5 108 Z " /><path fill="rgb(254,253,253)" stroke="rgb(254,253,253)" stroke-width="1" opacity="1" d="M 412.5 110 L 414.5 113 L 412.5 110 Z " /><path fill="rgb(254,253,253)" stroke="rgb(254,253,253)" stroke-width="1" opacity="1" d="M 417.5 124 L 418 126.5 L 417 126.5 L 417.5 124 Z " /><path fill="rgb(254,253,253)" stroke="rgb(254,253,253)" stroke-width="1" opacity="1" d="M 432.5 127 L 433 130.5 L 432 130.5 L 432.5 127 Z " /><path fill="rgb(254,253,253)" stroke="rgb(254,253,253)" stroke-width="1" opacity="1" d="M 782.5 127 L 783.5 129 L 782.5 127 Z " /><path fill="rgb(254,253,253)" stroke="rgb(254,253,253)" stroke-width="1" opacity="1" d="M 785.5 130 L 786.5 132 L 785.5 130 Z " /><path fill="rgb(254,253,253)" stroke="rgb(254,253,253)" stroke-width="1" opacity="1" d="M 831.5 132 L 835.5 137 L 831.5 132 Z " /><path fill="rgb(254,253,253)" stroke="rgb(254,253,253)" stroke-width="1" opacity="1" d="M 432.5 133 L 433 137.5 L 432 137.5 L 432.5 133 Z " /><path fill="rgb(254,253,253)" stroke="rgb(254,253,253)" stroke-width="1" opacity="1" d="M 519.5 133 L 520 135.5 L 519 135.5 L 519.5 133 Z " /><path fill="rgb(254,253,253)" stroke="rgb(254,253,253)" stroke-width="1" opacity="1" d="M 763.5 133 L 761.5 136 L 763.5 133 Z " /><path fill="rgb(254,253,253)" stroke="rgb(254,253,253)" stroke-width="1" opacity="1" d="M 417.5 136 L 418 139.5 L 417 139.5 L 417.5 136 Z " /><path fill="rgb(254,253,253)" stroke="rgb(254,253,253)" stroke-width="1" opacity="1" d="M 838.5 150 L 839 152.5 L 838 152.5 L 838.5 150 Z " /><path fill="rgb(254,253,253)" stroke="rgb(254,253,253)" stroke-width="1" opacity="1" d="M 187.5 152 L 188 187.5 L 187 187.5 L 187.5 152 Z " /><path fill="rgb(254,253,253)" stroke="rgb(254,253,253)" stroke-width="1" opacity="1" d="M 822.5 155 L 821.5 157 L 822.5 155 Z " /><path fill="rgb(254,253,253)" stroke="rgb(254,253,253)" stroke-width="1" opacity="1" d="M 425.5 160 L 421.5 165 L 425.5 160 Z " /><path fill="rgb(254,253,253)" stroke="rgb(254,253,253)" stroke-width="1" opacity="1" d="M 782.5 162 L 786.5 167 L 782.5 162 Z " /><path fill="rgb(254,253,253)" stroke="rgb(254,253,253)" stroke-width="1" opacity="1" d="M 473.5 228 L 486 228.5 L 473.5 229 L 473.5 228 Z " /><path fill="rgb(254,253,253)" stroke="rgb(254,253,253)" stroke-width="1" opacity="1" d="M 570.5 228 L 587 228.5 L 584 230.5 L 584.5 229 L 570.5 229 L 570.5 228 Z " /><path fill="rgb(254,253,253)" stroke="rgb(254,253,253)" stroke-width="1" opacity="1" d="M 491.5 230 L 486.5 236 L 491.5 230 Z " /><path fill="rgb(254,253,253)" stroke="rgb(254,253,253)" stroke-width="1" opacity="1" d="M 454.5 231 L 455.5 233 L 454.5 231 Z " /><path fill="rgb(254,253,253)" stroke="rgb(254,253,253)" stroke-width="1" opacity="1" d="M 566.5 232 L 564.5 235 L 566.5 232 Z " /><path fill="rgb(254,253,253)" stroke="rgb(254,253,253)" stroke-width="1" opacity="1" d="M 577.5 238 L 573.5 243 L 577.5 238 Z " /><path fill="rgb(254,253,253)" stroke="rgb(254,253,253)" stroke-width="1" opacity="1" d="M 393.5 240 L 392.5 242 L 393.5 240 Z " /><path fill="rgb(254,253,253)" stroke="rgb(254,253,253)" stroke-width="1" opacity="1" d="M 490.5 240 L 489.5 242 L 490.5 240 Z " /><path fill="rgb(254,253,253)" stroke="rgb(254,253,253)" stroke-width="1" opacity="1" d="M 559.5 240 L 557.5 243 L 559.5 240 Z " /><path fill="rgb(254,253,253)" stroke="rgb(254,253,253)" stroke-width="1" opacity="1" d="M 413.5 244 L 426 244.5 L 413.5 245 L 413.5 244 Z " /><path fill="rgb(254,253,253)" stroke="rgb(254,253,253)" stroke-width="1" opacity="1" d="M 508.5 246 L 509 248.5 L 508 248.5 L 508.5 246 Z " /><path fill="rgb(254,253,253)" stroke="rgb(254,253,253)" stroke-width="1" opacity="1" d="M 553.5 263 L 551.5 266 L 553.5 263 Z " /><path fill="rgb(254,253,253)" stroke="rgb(254,253,253)" stroke-width="1" opacity="1" d="M 443.5 270 L 441.5 273 L 443.5 270 Z " /><path fill="rgb(254,253,253)" stroke="rgb(254,253,253)" stroke-width="1" opacity="1" d="M 396.5 276 L 395.5 278 L 396.5 276 Z " /><path fill="rgb(254,253,253)" stroke="rgb(254,253,253)" stroke-width="1" opacity="1" d="M 444.5 279 L 443.5 281 L 444.5 279 Z " /><path fill="rgb(254,254,254)" stroke="rgb(254,254,254)" stroke-width="1" opacity="1" d="M 58 59 L 281 59 L 281 282 L 58 282 L 58 59 Z M 73 74 L 73 267 L 266 267 L 266 74 L 73 74 Z " /><path fill="rgb(254,254,254)" stroke="rgb(254,254,254)" stroke-width="1" opacity="1" d="M 530.5 94 Q 556.6 91.4 566 105.5 L 570 114.5 L 570 118 L 556.5 118 L 555 116.5 L 552 109 Q 546 104.8 533.5 106 Q 526.3 107.8 523 113.5 L 520 122.5 Q 521.3 130.8 519 135.5 L 520 136.5 L 520 145.5 L 522 151.5 L 527.5 157 L 531.5 159 L 546.5 159 L 554 153.5 L 556 146 L 570 146 L 570 151.5 Q 567.6 161.1 560.5 166 L 549.5 171 L 533.5 172 L 519.5 168 L 511 160.5 L 507 152.5 L 505 143.5 L 505 122.5 L 507 113.5 L 511 105.5 L 517.5 99 L 530.5 94 Z " /><path fill="rgb(254,254,254)" stroke="rgb(254,254,254)" stroke-width="1" opacity="1" d="M 798.5 94 L 815.5 94 L 820.5 95 L 832 102.5 L 836 111.5 L 836 117 L 822.5 117 L 822 115.5 L 818.5 108 Q 812.4 104.6 801.5 106 L 797.5 107 L 795 109.5 L 794 116.5 L 798.5 122 L 825.5 129 L 836 137.5 L 838 141.5 L 839 149.5 Q 836.5 151 838 156.5 Q 835.8 163.3 830.5 167 L 821.5 171 L 803.5 172 L 793.5 170 L 787.5 167 L 781 160.5 L 778 152.5 L 778 147 L 791.5 147 L 792 148.5 Q 792.9 155.1 797.5 158 L 800.5 159 L 817.5 159 L 823 155.5 L 824 147.5 L 819.5 142 L 790.5 134 L 784 130 L 780 122.5 L 779 114.5 Q 781.2 113.2 780 108.5 L 786.5 99 L 798.5 94 Z " /><path fill="rgb(254,254,254)" stroke="rgb(254,254,254)" stroke-width="1" opacity="1" d="M 94 95 L 244.5 95 L 245 95.5 L 245 131 L 94.5 131 L 94 130.5 L 94 95 Z " /><path fill="rgb(254,254,254)" stroke="rgb(254,254,254)" stroke-width="1" opacity="1" d="M 340 95 L 354.5 95 L 355 95.5 L 355 172 L 340.5 172 L 340 171.5 L 340 95 Z " /><path fill="rgb(254,254,254)" stroke="rgb(254,254,254)" stroke-width="1" opacity="1" d="M 370 95 L 402.5 95 L 403.5 96 L 411.5 96 Q 420.9 98.1 426 104.5 L 431 114.5 L 433 132.5 L 432 133.5 L 432 144.5 L 430 152.5 Q 426.8 161.3 419.5 166 L 407.5 170 L 370 170 L 370 95 Z M 384 107 L 384 158 L 406 158 L 411 156 L 416 150 L 418 140 L 418 125 L 415 113 L 408 108 L 384 107 Z " /><path fill="rgb(254,254,254)" stroke="rgb(254,254,254)" stroke-width="1" opacity="1" d="M 446 95 L 497.5 95 L 498 95.5 L 498 107 L 460 107 L 460 126 L 493 126 L 493 138 L 460 138 L 460 170 L 446 170 L 446 95 Z " /><path fill="rgb(254,254,254)" stroke="rgb(254,254,254)" stroke-width="1" opacity="1" d="M 613 95 L 664.5 95 L 665 95.5 L 665 107 L 628 107 L 628 126 L 660 126 L 660 138 L 628 138 L 628 170 L 613 170 L 613 95 Z " /><path fill="rgb(254,254,254)" stroke="rgb(254,254,254)" stroke-width="1" opacity="1" d="M 676 95 L 690.5 95 L 691 95.5 L 691 170 L 676.5 170 L 676 169.5 L 676 95 Z " /><path fill="rgb(254,254,254)" stroke="rgb(254,254,254)" stroke-width="1" opacity="1" d="M 706 95 L 743.5 95 L 744.5 96 L 752.5 96 Q 760.3 97.2 764 102.5 L 767 108.5 L 768 120.5 L 765 131.5 L 759.5 137 L 753 139 L 754 142.5 L 772 169.5 L 754 170 L 735.5 140 L 721 140 L 721 170 L 706 170 L 706 95 Z M 721 107 L 721 128 L 746 128 L 749 127 L 753 121 L 752 112 L 748 108 L 721 107 Z " /><path fill="rgb(254,254,254)" stroke="rgb(254,254,254)" stroke-width="1" opacity="1" d="M 843 95 L 902.5 95 L 903 95.5 L 903 108 L 881 108 L 881 169.5 L 880.5 170 L 866 170 L 866 108.5 L 865.5 108 L 843 108 L 843 95 Z " /><path fill="rgb(254,254,254)" stroke="rgb(254,254,254)" stroke-width="1" opacity="1" d="M 94 152 L 187 152 L 187 188 L 94 188 L 94 152 Z " /><path fill="rgb(254,254,254)" stroke="rgb(254,254,254)" stroke-width="1" opacity="1" d="M 339 208 L 375.5 208 L 376.5 209 L 384.5 209 Q 392.2 210.8 396 216.5 Q 399.7 222.3 398 233.5 L 395 240 L 390 242 Q 388.9 244.7 391.5 244 L 398 249.5 Q 402.7 255.4 401 267.5 Q 399.1 275.2 393.5 279 L 382.5 283 L 339 283 L 339 208 Z M 354 221 L 354 238 L 380 238 L 382 237 Q 386 234 384 225 L 380 221 L 354 221 Z M 354 250 L 354 271 L 380 271 L 383 270 L 386 267 L 386 255 L 384 252 L 378 250 L 354 250 Z " /><path fill="rgb(254,254,254)" stroke="rgb(254,254,254)" stroke-width="1" opacity="1" d="M 537 208 L 551 208 L 551 248.5 L 553 249 L 569.5 229 L 585 229.5 L 568 248.5 L 568 250.5 L 587 282.5 L 571 283 L 559 259 L 551 265.5 L 551 283 L 537 283 L 537 208 Z " /><path fill="rgb(254,254,254)" stroke="rgb(254,254,254)" stroke-width="1" opacity="1" d="M 94 210 L 130 210 L 130 246 L 94 246 L 94 210 Z " /><path fill="rgb(254,254,254)" stroke="rgb(254,254,254)" stroke-width="1" opacity="1" d="M 430.5 227 L 447.5 228 Q 454 229.5 457 234.5 L 459 239.5 L 459 283 L 446.5 283 L 446 279 L 444.5 279 L 439.5 283 L 427.5 285 L 418.5 283 L 413 278.5 Q 409.7 273.8 411 264.5 L 417.5 255 L 424.5 252 L 445 249 L 445 241.5 L 442.5 239 Q 438.7 236.3 430.5 238 L 426 241.5 L 425.5 244 L 413 244 Q 412.5 234.8 418.5 231 L 424.5 228 Q 429.3 229.3 430.5 227 Z M 440 258 L 428 261 Q 423 263 425 272 L 428 274 L 432 275 L 442 273 L 445 269 L 445 258 L 440 258 Z " /><path fill="rgb(254,254,254)" stroke="rgb(254,254,254)" stroke-width="1" opacity="1" d="M 500.5 227 L 513.5 228 L 519 232.5 L 522 239.5 L 522 283 L 509 283 L 509 246.5 L 507 240 Q 503.4 237.3 495.5 238 L 489 241.5 L 487 245.5 L 487 283 L 473.5 283 L 473 282.5 L 473 229 L 486 229 L 486 235.5 L 492.5 230 L 500.5 227 Z " /></svg>