<svg width="419" height="120" version="1.1" xmlns="http://www.w3.org/2000/svg" desc="Created with imagetracer.js version 1.2.6" ><path fill="rgb(213,231,242)" stroke="rgb(213,231,242)" stroke-width="1" opacity="1" d="M 32.5 28 L 33 100.5 L 32 100.5 L 32.5 28 Z " /><path fill="rgb(213,231,242)" stroke="rgb(213,231,242)" stroke-width="1" opacity="1" d="M 51.5 34 L 62.5 46 L 51.5 34 Z " /><path fill="rgb(213,231,242)" stroke="rgb(213,231,242)" stroke-width="1" opacity="1" d="M 242.5 40 L 243 42.5 L 242 42.5 L 242.5 40 Z " /><path fill="rgb(213,231,242)" stroke="rgb(213,231,242)" stroke-width="1" opacity="1" d="M 191.5 42 L 192 44.5 L 191 44.5 L 191.5 42 Z " /><path fill="rgb(213,231,242)" stroke="rgb(213,231,242)" stroke-width="1" opacity="1" d="M 16.5 43 L 14.5 46 L 16.5 43 Z " /><path fill="rgb(213,231,242)" stroke="rgb(213,231,242)" stroke-width="1" opacity="1" d="M 91.5 44 L 90.5 46 L 91.5 44 Z " /><path fill="rgb(213,231,242)" stroke="rgb(213,231,242)" stroke-width="1" opacity="1" d="M 124.5 45 L 119.5 51 L 118 50.5 L 124.5 45 Z " /><path fill="rgb(213,231,242)" stroke="rgb(213,231,242)" stroke-width="1" opacity="1" d="M 243.5 47 L 244 49.5 L 243 49.5 L 243.5 47 Z " /><path fill="rgb(213,231,242)" stroke="rgb(213,231,242)" stroke-width="1" opacity="1" d="M 266.5 47 L 267 86.5 L 266 86.5 L 266.5 47 Z " /><path fill="rgb(213,231,242)" stroke="rgb(213,231,242)" stroke-width="1" opacity="1" d="M 366.5 47 L 367 87.5 L 366 87.5 L 366.5 47 Z " /><path fill="rgb(213,231,242)" stroke="rgb(213,231,242)" stroke-width="1" opacity="1" d="M 369.5 47 L 370 68.5 L 369 68.5 L 369.5 47 Z " /><path fill="rgb(213,231,242)" stroke="rgb(213,231,242)" stroke-width="1" opacity="1" d="M 269.5 49 L 270 61.5 L 269 61.5 L 269.5 49 Z " /><path fill="rgb(213,231,242)" stroke="rgb(213,231,242)" stroke-width="1" opacity="1" d="M 87.5 51 L 88 55.5 L 87 55.5 L 87.5 51 Z " /><path fill="rgb(213,231,242)" stroke="rgb(213,231,242)" stroke-width="1" opacity="1" d="M 165.5 51 L 166 55.5 L 165 55.5 L 165.5 51 Z " /><path fill="rgb(213,231,242)" stroke="rgb(213,231,242)" stroke-width="1" opacity="1" d="M 199.5 56 L 199 57.5 L 198.5 60 L 198 57.5 L 199.5 56 Z " /><path fill="rgb(213,231,242)" stroke="rgb(213,231,242)" stroke-width="1" opacity="1" d="M 244.5 56 L 245 58.5 L 244 58.5 L 244.5 56 Z " /><path fill="rgb(213,231,242)" stroke="rgb(213,231,242)" stroke-width="1" opacity="1" d="M 189.5 58 L 190 61.5 L 189 61.5 L 189.5 58 Z " /><path fill="rgb(213,231,242)" stroke="rgb(213,231,242)" stroke-width="1" opacity="1" d="M 323.5 59 L 325 59.5 L 322.5 61 L 323.5 59 Z " /><path fill="rgb(213,231,242)" stroke="rgb(213,231,242)" stroke-width="1" opacity="1" d="M 333 59 L 337 60.5 L 336.5 63 L 336 60 L 334 60.5 L 334 87.5 L 333 87.5 L 333 59 Z " /><path fill="rgb(213,231,242)" stroke="rgb(213,231,242)" stroke-width="1" opacity="1" d="M 384.5 59 L 389 59.5 L 384.5 60 L 384.5 59 Z " /><path fill="rgb(213,231,242)" stroke="rgb(213,231,242)" stroke-width="1" opacity="1" d="M 89.5 60 L 92.5 64 L 89.5 60 Z " /><path fill="rgb(213,231,242)" stroke="rgb(213,231,242)" stroke-width="1" opacity="1" d="M 354.5 61 L 355.5 63 L 354.5 61 Z " /><path fill="rgb(213,231,242)" stroke="rgb(213,231,242)" stroke-width="1" opacity="1" d="M 351.5 63 L 353.5 66 L 351.5 63 Z " /><path fill="rgb(213,231,242)" stroke="rgb(213,231,242)" stroke-width="1" opacity="1" d="M 383.5 63 L 382.5 65 L 383.5 63 Z " /><path fill="rgb(213,231,242)" stroke="rgb(213,231,242)" stroke-width="1" opacity="1" d="M 236.5 64 L 237 67.5 L 236 67.5 L 236.5 64 Z " /><path fill="rgb(213,231,242)" stroke="rgb(213,231,242)" stroke-width="1" opacity="1" d="M 271.5 64 L 270.5 66 L 271.5 64 Z " /><path fill="rgb(213,231,242)" stroke="rgb(213,231,242)" stroke-width="1" opacity="1" d="M 305.5 64 L 303.5 67 L 305.5 64 Z " /><path fill="rgb(213,231,242)" stroke="rgb(213,231,242)" stroke-width="1" opacity="1" d="M 245.5 66 L 246 69.5 L 245 69.5 L 245.5 66 Z " /><path fill="rgb(213,231,242)" stroke="rgb(213,231,242)" stroke-width="1" opacity="1" d="M 144.5 67 L 160 67.5 L 144.5 68 L 144.5 67 Z " /><path fill="rgb(213,231,242)" stroke="rgb(213,231,242)" stroke-width="1" opacity="1" d="M 197.5 67 L 198 71.5 L 197 71.5 L 197.5 67 Z " /><path fill="rgb(213,231,242)" stroke="rgb(213,231,242)" stroke-width="1" opacity="1" d="M 269.5 67 L 270 84 L 272 84.5 L 270.5 85 L 269 83.5 L 269.5 67 Z " /><path fill="rgb(213,231,242)" stroke="rgb(213,231,242)" stroke-width="1" opacity="1" d="M 372.5 67 L 371.5 69 L 372.5 67 Z " /><path fill="rgb(213,231,242)" stroke="rgb(213,231,242)" stroke-width="1" opacity="1" d="M 354.5 68 L 355 87.5 L 354 87.5 L 354.5 68 Z " /><path fill="rgb(213,231,242)" stroke="rgb(213,231,242)" stroke-width="1" opacity="1" d="M 376.5 68 L 375.5 70 L 376.5 68 Z " /><path fill="rgb(213,231,242)" stroke="rgb(213,231,242)" stroke-width="1" opacity="1" d="M 188.5 69 L 189 73.5 L 188 73.5 L 188.5 69 Z " /><path fill="rgb(213,231,242)" stroke="rgb(213,231,242)" stroke-width="1" opacity="1" d="M 293.5 71 L 294 75.5 L 293 75.5 L 293.5 71 Z " /><path fill="rgb(213,231,242)" stroke="rgb(213,231,242)" stroke-width="1" opacity="1" d="M 301.5 71 L 302 75.5 L 301 75.5 L 301.5 71 Z " /><path fill="rgb(213,231,242)" stroke="rgb(213,231,242)" stroke-width="1" opacity="1" d="M 169.5 72 L 170 75.5 L 169 75.5 L 169.5 72 Z " /><path fill="rgb(213,231,242)" stroke="rgb(213,231,242)" stroke-width="1" opacity="1" d="M 369.5 72 L 370 87.5 L 369 87.5 L 369.5 72 Z " /><path fill="rgb(213,231,242)" stroke="rgb(213,231,242)" stroke-width="1" opacity="1" d="M 117.5 73 L 118 75.5 L 117 75.5 L 117.5 73 Z " /><path fill="rgb(213,231,242)" stroke="rgb(213,231,242)" stroke-width="1" opacity="1" d="M 371.5 73 L 378.5 81 L 371.5 73 Z " /><path fill="rgb(213,231,242)" stroke="rgb(213,231,242)" stroke-width="1" opacity="1" d="M 376.5 73 L 387.5 85 L 376.5 73 Z " /><path fill="rgb(213,231,242)" stroke="rgb(213,231,242)" stroke-width="1" opacity="1" d="M 116.5 77 L 115.5 79 L 116.5 77 Z " /><path fill="rgb(213,231,242)" stroke="rgb(213,231,242)" stroke-width="1" opacity="1" d="M 237.5 78 L 238 86.5 L 237 86.5 L 237.5 78 Z " /><path fill="rgb(213,231,242)" stroke="rgb(213,231,242)" stroke-width="1" opacity="1" d="M 321.5 79 L 322 80.5 L 320 81.5 L 321.5 79 Z " /><path fill="rgb(213,231,242)" stroke="rgb(213,231,242)" stroke-width="1" opacity="1" d="M 101.5 80 L 104 80.5 L 101.5 81 L 101.5 80 Z " /><path fill="rgb(213,231,242)" stroke="rgb(213,231,242)" stroke-width="1" opacity="1" d="M 144.5 80 L 163 80.5 L 144.5 81 L 144.5 80 Z " /><path fill="rgb(213,231,242)" stroke="rgb(213,231,242)" stroke-width="1" opacity="1" d="M 246.5 80 L 247 88.5 L 246 88.5 L 246.5 80 Z " /><path fill="rgb(213,231,242)" stroke="rgb(213,231,242)" stroke-width="1" opacity="1" d="M 325.5 80 L 326 83.5 L 325 83.5 L 325.5 80 Z " /><path fill="rgb(213,231,242)" stroke="rgb(213,231,242)" stroke-width="1" opacity="1" d="M 220.5 81 L 219.5 83 L 214 82.5 L 220.5 81 Z " /><path fill="rgb(213,231,242)" stroke="rgb(213,231,242)" stroke-width="1" opacity="1" d="M 287.5 81 L 286.5 83 L 287.5 81 Z " /><path fill="rgb(213,231,242)" stroke="rgb(213,231,242)" stroke-width="1" opacity="1" d="M 123.5 82 L 120.5 86 L 123.5 82 Z " /><path fill="rgb(213,231,242)" stroke="rgb(213,231,242)" stroke-width="1" opacity="1" d="M 176.5 82 L 173.5 86 L 176.5 82 Z " /><path fill="rgb(213,231,242)" stroke="rgb(213,231,242)" stroke-width="1" opacity="1" d="M 300.5 82 L 304.5 87 L 300.5 82 Z " /><path fill="rgb(213,231,242)" stroke="rgb(213,231,242)" stroke-width="1" opacity="1" d="M 62.5 83 L 51.5 95 L 62.5 83 Z " /><path fill="rgb(213,231,242)" stroke="rgb(213,231,242)" stroke-width="1" opacity="1" d="M 196.5 83 L 197 88.5 L 196 88.5 L 196.5 83 Z " /><path fill="rgb(213,231,242)" stroke="rgb(213,231,242)" stroke-width="1" opacity="1" d="M 320.5 85 L 319.5 87 L 320.5 85 Z " /><path fill="rgb(213,231,242)" stroke="rgb(213,231,242)" stroke-width="1" opacity="1" d="M 187.5 86 L 188 88.5 L 187 88.5 L 187.5 86 Z " /><path fill="rgb(213,231,242)" stroke="rgb(213,231,242)" stroke-width="1" opacity="1" d="M 276.5 88 L 281 88.5 L 276.5 89 L 276.5 88 Z " /><path fill="rgb(213,231,242)" stroke="rgb(213,231,242)" stroke-width="1" opacity="1" d="M 310.5 88 L 314 88.5 L 310.5 89 L 310.5 88 Z " /><path fill="rgb(255,255,255)" stroke="rgb(255,255,255)" stroke-width="1" opacity="1" d="M 0 0 L 418.5 0 L 419 0.5 L 419 120 L 0.5 120 L 0 119.5 L 0 0 Z M 45 16 L 32 29 L 32 101 L 45 113 L 45 16 Z M 25 34 L 20 41 L 17 43 L 14 46 L 14 83 L 27 95 L 27 35 L 25 34 Z M 52 34 L 51 95 L 63 84 L 63 46 L 52 34 Z M 101 40 L 92 44 L 87 52 Q 86 58 89 61 L 97 66 L 115 70 Q 118 71 117 77 L 115 79 L 109 81 Q 98 81 91 77 L 86 83 L 91 86 L 101 89 Q 114 91 121 86 L 126 79 Q 128 71 125 68 L 116 61 L 100 58 L 96 53 L 100 49 L 104 48 L 111 48 L 119 51 L 125 46 Q 118 38 101 40 Z M 135 40 L 135 89 L 166 89 L 174 86 Q 178 83 179 78 L 178 68 L 172 63 L 175 57 Q 176 50 174 47 Q 171 42 165 40 L 135 40 Z M 192 40 L 189 59 L 188 86 L 187 87 L 188 89 L 197 89 L 198 61 L 200 57 L 214 82 Q 213 84 220 83 L 235 57 L 236 59 L 237 87 L 238 88 L 239 89 L 247 89 L 246 67 L 245 66 L 244 48 L 243 47 L 243 40 L 235 40 L 218 70 L 201 42 L 201 40 L 192 40 Z M 266 47 L 266 87 L 277 89 L 287 87 Q 293 84 294 76 Q 295 68 291 65 L 284 59 L 273 60 L 270 62 L 270 48 L 266 47 Z M 366 47 L 366 88 L 370 88 L 371 72 L 371 74 L 387 88 L 391 88 L 376 73 L 374 70 L 387 62 L 389 59 L 385 59 L 373 67 L 370 69 L 370 48 L 366 47 Z M 308 59 L 306 60 Q 300 63 298 70 Q 297 78 300 83 Q 303 88 311 89 Q 318 89 322 85 Q 325 84 323 88 L 326 88 L 326 81 L 325 80 L 325 59 L 322 61 Q 317 57 308 59 Z M 333 59 L 333 88 L 337 88 L 337 67 L 345 62 Q 352 62 354 67 L 354 88 L 358 88 L 358 67 L 356 63 L 351 59 Q 341 58 338 62 L 337 61 L 333 59 Z " /><path fill="rgb(255,255,255)" stroke="rgb(255,255,255)" stroke-width="1" opacity="1" d="M 144 48 L 159.5 48 L 165 50.5 Q 166.5 56.5 163.5 58 L 161.5 59 L 144 59 L 144 48 Z " /><path fill="rgb(255,255,255)" stroke="rgb(255,255,255)" stroke-width="1" opacity="1" d="M 277.5 62 Q 285 62 288 66.5 Q 290.7 69.8 290 76.5 L 284.5 84 L 272.5 85 L 270 84 L 270 66.5 L 272.5 64 L 277.5 62 Z " /><path fill="rgb(255,255,255)" stroke="rgb(255,255,255)" stroke-width="1" opacity="1" d="M 310.5 62 Q 318.5 61.5 322 65.5 Q 323.9 77.8 320 83 Q 317.1 85.9 309.5 85 L 303 80.5 L 302 69.5 L 307.5 63 L 310.5 62 Z " /><path fill="rgb(255,255,255)" stroke="rgb(255,255,255)" stroke-width="1" opacity="1" d="M 144 68 L 164.5 68 L 169 70.5 Q 170.8 77.3 167.5 79 L 165.5 80 L 144 80 L 144 68 Z " /><path fill="rgb(31,48,98)" stroke="rgb(31,48,98)" stroke-width="1" opacity="1" d="M 43.5 17 L 45 17.5 L 45 112 L 43.5 112 L 33 101.5 L 33 27.5 L 43.5 17 Z " /><path fill="rgb(31,48,98)" stroke="rgb(31,48,98)" stroke-width="1" opacity="1" d="M 25.5 35 L 26 93.5 L 14 82.5 L 14 46.5 L 25.5 35 Z " /><path fill="rgb(31,48,98)" stroke="rgb(31,48,98)" stroke-width="1" opacity="1" d="M 104.5 40 L 115.5 41 L 124 45.5 L 119.5 50 L 117.5 50 L 113.5 48 L 100.5 48 L 96 51.5 Q 95 57 98.5 58 L 116.5 62 L 125 68.5 L 126 76.5 Q 124.5 83 119.5 86 L 114.5 88 L 98.5 88 L 86 82.5 L 91.5 77 L 92.5 78 Q 99 82.5 111.5 81 L 118 76.5 Q 119 71 115.5 70 L 95.5 65 L 89 59.5 L 88 50.5 L 92.5 44 L 98.5 41 Q 103.3 42.3 104.5 40 Z " /><path fill="rgb(31,48,98)" stroke="rgb(31,48,98)" stroke-width="1" opacity="1" d="M 135 40 L 160.5 40 L 172 44 Q 175.7 47.4 174 57.5 L 171 63 L 176 65 Q 179.3 68.9 178 78.5 L 172.5 86 L 167.5 88 L 135 88 L 135 40 Z M 143 48 L 143 59 L 145 60 L 161 60 L 164 59 Q 167 57 166 51 L 163 48 L 143 48 Z M 145 67 L 143 69 L 143 81 L 165 81 L 167 80 Q 171 79 170 72 L 164 67 L 145 67 Z " /><path fill="rgb(31,48,98)" stroke="rgb(31,48,98)" stroke-width="1" opacity="1" d="M 192 40 L 199.5 40 L 200 41.5 L 217.5 71 L 234 40 L 242 40 L 242 44.5 L 243 45.5 L 244 61.5 L 245 62.5 L 246 88.5 L 244.5 88 Q 239.8 86.8 238.5 89 L 237 61.5 L 235.5 55 L 219.5 82 Q 213.4 83.3 214 80.5 L 198.5 55 L 195.5 89 Q 194.3 86.8 189.5 88 L 188 88.5 L 189 65.5 L 190 64.5 L 190 55.5 L 191 54.5 L 192 40 Z " /><path fill="rgb(60,174,219)" stroke="rgb(60,174,219)" stroke-width="1" opacity="1" d="M 26.5 35 L 27 93.5 L 26 93.5 L 26.5 35 Z " /><path fill="rgb(60,174,219)" stroke="rgb(60,174,219)" stroke-width="1" opacity="1" d="M 51.5 35 L 63 46.5 L 63 82.5 L 51 93.5 L 51.5 35 Z " /><path fill="rgb(60,174,219)" stroke="rgb(60,174,219)" stroke-width="1" opacity="1" d="M 267 47 L 270 48.5 L 269 49.5 L 269 62 L 276.5 59 L 282.5 59 L 290 63.5 Q 294.5 68 293 78.5 L 287.5 86 L 283.5 88 L 270.5 88 L 267 87 L 267 47 Z M 276 62 L 272 64 L 269 68 L 269 84 L 271 85 L 284 85 L 287 83 L 290 78 Q 291 71 289 68 Q 287 60 276 62 Z " /><path fill="rgb(60,174,219)" stroke="rgb(60,174,219)" stroke-width="1" opacity="1" d="M 367 47 L 369 47.5 L 369 68.5 L 371.5 69 L 383.5 60 L 387.5 60 L 387.5 61 L 374 70.5 L 387.5 85 L 390 86.5 Q 390.9 89.5 386.5 88 L 370.5 72 L 369 72 L 369 87.5 L 367 88 L 367 47 Z " /><path fill="rgb(60,174,219)" stroke="rgb(60,174,219)" stroke-width="1" opacity="1" d="M 143.5 48 L 144 59 L 161 59.5 L 144.5 60 L 143 58.5 L 143.5 48 Z " /><path fill="rgb(60,174,219)" stroke="rgb(60,174,219)" stroke-width="1" opacity="1" d="M 164.5 49 L 165.5 51 L 164.5 49 Z " /><path fill="rgb(60,174,219)" stroke="rgb(60,174,219)" stroke-width="1" opacity="1" d="M 174.5 50 L 175 55.5 L 174 55.5 L 174.5 50 Z " /><path fill="rgb(60,174,219)" stroke="rgb(60,174,219)" stroke-width="1" opacity="1" d="M 243.5 50 L 244 52.5 L 243 52.5 L 243.5 50 Z " /><path fill="rgb(60,174,219)" stroke="rgb(60,174,219)" stroke-width="1" opacity="1" d="M 190.5 52 L 191 54.5 L 190 54.5 L 190.5 52 Z " /><path fill="rgb(60,174,219)" stroke="rgb(60,174,219)" stroke-width="1" opacity="1" d="M 235.5 55 L 234.5 57 L 235.5 55 Z " /><path fill="rgb(60,174,219)" stroke="rgb(60,174,219)" stroke-width="1" opacity="1" d="M 164.5 57 L 163.5 59 L 164.5 57 Z " /><path fill="rgb(60,174,219)" stroke="rgb(60,174,219)" stroke-width="1" opacity="1" d="M 244.5 59 L 245 61.5 L 244 61.5 L 244.5 59 Z " /><path fill="rgb(60,174,219)" stroke="rgb(60,174,219)" stroke-width="1" opacity="1" d="M 309.5 59 L 315.5 59 L 322.5 61 L 325 60 L 325 83.5 L 326 88 L 323 86.5 L 322.5 84 Q 318.8 89.3 308.5 88 Q 302.4 86.6 300 81.5 L 298 71.5 Q 299.1 64.1 304.5 61 L 309.5 59 Z M 310 62 L 306 64 L 301 72 L 302 80 L 309 85 Q 315 86 319 84 L 322 81 L 322 64 Q 318 61 310 62 Z " /><path fill="rgb(60,174,219)" stroke="rgb(60,174,219)" stroke-width="1" opacity="1" d="M 343.5 59 Q 354.1 58 357 64.5 L 358 67.5 L 358 88 L 355 87.5 L 355 68.5 L 351.5 63 L 342.5 62 L 337 65 L 337 87.5 L 334 88 L 334 60.5 L 336 60 L 336.5 63 L 343.5 59 Z " /><path fill="rgb(60,174,219)" stroke="rgb(60,174,219)" stroke-width="1" opacity="1" d="M 172.5 60 L 172 61.5 L 171.5 63 L 171 61.5 L 172.5 60 Z " /><path fill="rgb(60,174,219)" stroke="rgb(60,174,219)" stroke-width="1" opacity="1" d="M 236.5 61 L 237 63.5 L 236 63.5 L 236.5 61 Z " /><path fill="rgb(60,174,219)" stroke="rgb(60,174,219)" stroke-width="1" opacity="1" d="M 189.5 62 L 190 64.5 L 189 64.5 L 189.5 62 Z " /><path fill="rgb(60,174,219)" stroke="rgb(60,174,219)" stroke-width="1" opacity="1" d="M 197.5 64 L 198 66.5 L 197 66.5 L 197.5 64 Z " /><path fill="rgb(60,174,219)" stroke="rgb(60,174,219)" stroke-width="1" opacity="1" d="M 122.5 65 L 123.5 67 L 122.5 65 Z " /><path fill="rgb(60,174,219)" stroke="rgb(60,174,219)" stroke-width="1" opacity="1" d="M 160.5 67 L 164 67.5 L 160.5 68 L 160.5 67 Z " /><path fill="rgb(60,174,219)" stroke="rgb(60,174,219)" stroke-width="1" opacity="1" d="M 143.5 68 L 144 80.5 L 143 80.5 L 143.5 68 Z " /><path fill="rgb(60,174,219)" stroke="rgb(60,174,219)" stroke-width="1" opacity="1" d="M 216.5 69 L 217.5 71 L 216.5 69 Z " /><path fill="rgb(60,174,219)" stroke="rgb(60,174,219)" stroke-width="1" opacity="1" d="M 245.5 70 L 246 73.5 L 245 73.5 L 245.5 70 Z " /><path fill="rgb(60,174,219)" stroke="rgb(60,174,219)" stroke-width="1" opacity="1" d="M 178.5 71 L 179 76.5 L 178 76.5 L 178.5 71 Z " /><path fill="rgb(60,174,219)" stroke="rgb(60,174,219)" stroke-width="1" opacity="1" d="M 237.5 73 L 238 77.5 L 237 77.5 L 237.5 73 Z " /><path fill="rgb(60,174,219)" stroke="rgb(60,174,219)" stroke-width="1" opacity="1" d="M 188.5 74 L 189 77.5 L 188 77.5 L 188.5 74 Z " /><path fill="rgb(60,174,219)" stroke="rgb(60,174,219)" stroke-width="1" opacity="1" d="M 89.5 78 L 86.5 82 L 89.5 78 Z " /><path fill="rgb(60,174,219)" stroke="rgb(60,174,219)" stroke-width="1" opacity="1" d="M 196.5 78 L 197 82.5 L 196 82.5 L 196.5 78 Z " /><path fill="rgb(60,174,219)" stroke="rgb(60,174,219)" stroke-width="1" opacity="1" d="M 102.5 88 L 111 88.5 L 102.5 89 L 102.5 88 Z " /><path fill="rgb(60,174,219)" stroke="rgb(60,174,219)" stroke-width="1" opacity="1" d="M 135.5 88 L 164 88.5 L 135.5 89 L 135.5 88 Z " /><path fill="rgb(60,174,219)" stroke="rgb(60,174,219)" stroke-width="1" opacity="1" d="M 189.5 88 L 195 88.5 L 189.5 89 L 189.5 88 Z " /><path fill="rgb(60,174,219)" stroke="rgb(60,174,219)" stroke-width="1" opacity="1" d="M 239.5 88 L 245 88.5 L 239.5 89 L 239.5 88 Z " /></svg>